<svg xmlns="http://www.w3.org/2000/svg" viewBox="0 0 1200 760" font-family="'Kaiti SC','STKaiti','PingFang SC','Songti SC',serif"><defs><radialGradient id="paperg" cx="40%" cy="30%" r="90%"><stop offset="0%" stop-color="#f7efd7"/><stop offset="100%" stop-color="#d8c99e"/></radialGradient><linearGradient id="seag" x1="0" y1="0" x2="0" y2="1"><stop offset="0%" stop-color="#b7d1cf"/><stop offset="100%" stop-color="#9dbbb7"/></linearGradient><linearGradient id="landg" x1="0" y1="0" x2="0" y2="1"><stop offset="0%" stop-color="#78906b"/><stop offset="62%" stop-color="#98ad82"/><stop offset="100%" stop-color="#ead9a8"/></linearGradient><filter id="grain"><feTurbulence type="fractalNoise" baseFrequency="0.85" numOctaves="2" seed="4" result="n"/><feColorMatrix in="n" type="matrix" values="0 0 0 0 0.25  0 0 0 0 0.20  0 0 0 0 0.13  0 0 0 0.055 0"/></filter><filter id="rough"><feTurbulence type="fractalNoise" baseFrequency="0.012" numOctaves="2" seed="9" result="t"/><feDisplacementMap in="SourceGraphic" in2="t" scale="2.4" xChannelSelector="R" yChannelSelector="G"/></filter><filter id="soft" x="-40%" y="-40%" width="180%" height="180%"><feGaussianBlur stdDeviation="7"/></filter><marker id="arrow-water" viewBox="0 0 10 10" refX="8" refY="5" markerWidth="7" markerHeight="7" orient="auto-start-reverse"><path d="M0,0 L10,5 L0,10 Z" fill="#2477aa"/></marker><marker id="arrow-clue" viewBox="0 0 10 10" refX="8" refY="5" markerWidth="8" markerHeight="8" orient="auto-start-reverse"><path d="M0,0 L10,5 L0,10 Z" fill="#bf7b28"/></marker></defs><rect x="0" y="0" width="1200" height="760" fill="url(#paperg)"/><rect x="0" y="0" width="1200" height="760" filter="url(#grain)" opacity="0.9"/><rect x="24" y="22" width="1152" height="716" rx="8" fill="none" stroke="#443525" stroke-width="2.4"/><rect x="32" y="30" width="1136" height="700" rx="6" fill="none" stroke="#6b5a3f" stroke-width="1" opacity="0.65"/><rect x="44" y="58" width="800" height="646" rx="8" fill="#efe6c8" fill-opacity="0.30" stroke="#6b5a3f" stroke-width="1" opacity="0.65"/><text x="58" y="52" font-size="25" font-weight="700" fill="#443525" letter-spacing="2">无名孤岛（暂称）</text><text x="58" y="72" font-size="12.5" fill="#6b5a3f">野外手绘调查图 · 第6天 · 2027-04-17 · 00:00（第5天日结） · 编号点位 + 路线索引</text><path d="M 58.0 537.8 L 68.7 538.2 L 79.4 537.6 L 90.2 536.4 L 100.9 535.0 L 111.6 533.9 L 122.3 533.5 L 133.1 533.7 L 143.8 533.9 L 154.5 533.8 L 165.2 532.8 L 175.9 530.8 L 186.7 528.2 L 197.4 525.5 L 208.1 523.4 L 218.8 522.2 L 229.6 522.2 L 240.3 522.9 L 251.0 523.7 L 261.7 524.2 L 272.4 524.1 L 283.2 523.3 L 293.9 522.5 L 304.6 522.0 L 315.3 522.2 L 326.1 523.3 L 336.8 524.9 L 347.5 526.3 L 358.2 527.0 L 368.9 526.7 L 379.7 525.3 L 390.4 523.3 L 401.1 521.3 L 411.8 519.9 L 422.6 519.4 L 433.3 519.7 L 444.0 520.2 L 454.7 520.4 L 465.4 520.1 L 476.2 519.2 L 486.9 518.0 L 497.6 517.1 L 508.3 517.0 L 519.1 518.1 L 529.8 520.1 L 540.5 522.5 L 551.2 524.7 L 561.9 526.2 L 572.7 526.7 L 583.4 526.3 L 594.1 525.7 L 604.8 525.4 L 615.6 525.7 L 626.3 526.6 L 637.0 527.8 L 647.7 528.7 L 658.4 528.8 L 669.2 528.1 L 679.9 526.7 L 690.6 525.1 L 701.3 524.1 L 712.1 524.1 L 722.8 525.2 L 733.5 527.1 L 744.2 529.3 L 754.9 531.2 L 765.7 532.3 L 776.4 532.8 L 787.1 533.0 L 797.8 533.4 L 808.6 534.5 L 819.3 536.3 L 830.0 538.6 L 830.0 690.0 L 58.0 690.0 Z" fill="url(#seag)"/><path d="M 76.0 578.2 q 11.6 -3 23.2 0" stroke="#557a76" stroke-width="1" fill="none" opacity="0.32"/><path d="M 112.5 578.2 q 15.4 -3 30.8 0" stroke="#557a76" stroke-width="1" fill="none" opacity="0.32"/><path d="M 162.0 578.2 q 12.5 -3 24.9 0" stroke="#557a76" stroke-width="1" fill="none" opacity="0.32"/><path d="M 208.1 578.2 q 11.4 -3 22.8 0" stroke="#557a76" stroke-width="1" fill="none" opacity="0.32"/><path d="M 242.2 578.2 q 9.6 -3 19.2 0" stroke="#557a76" stroke-width="1" fill="none" opacity="0.32"/><path d="M 273.4 578.2 q 12.2 -3 24.3 0" stroke="#557a76" stroke-width="1" fill="none" opacity="0.32"/><path d="M 310.9 578.2 q 13.8 -3 27.6 0" stroke="#557a76" stroke-width="1" fill="none" opacity="0.32"/><path d="M 358.9 578.2 q 9.2 -3 18.5 0" stroke="#557a76" stroke-width="1" fill="none" opacity="0.32"/><path d="M 390.1 578.2 q 11.3 -3 22.5 0" stroke="#557a76" stroke-width="1" fill="none" opacity="0.32"/><path d="M 431.6 578.2 q 9.5 -3 19.1 0" stroke="#557a76" stroke-width="1" fill="none" opacity="0.32"/><path d="M 462.1 578.2 q 13.8 -3 27.6 0" stroke="#557a76" stroke-width="1" fill="none" opacity="0.32"/><path d="M 508.1 578.2 q 9.5 -3 19.1 0" stroke="#557a76" stroke-width="1" fill="none" opacity="0.32"/><path d="M 541.4 578.2 q 11.1 -3 22.1 0" stroke="#557a76" stroke-width="1" fill="none" opacity="0.32"/><path d="M 575.0 578.2 q 9.2 -3 18.4 0" stroke="#557a76" stroke-width="1" fill="none" opacity="0.32"/><path d="M 607.3 578.2 q 10.9 -3 21.8 0" stroke="#557a76" stroke-width="1" fill="none" opacity="0.32"/><path d="M 642.2 578.2 q 14.5 -3 29.1 0" stroke="#557a76" stroke-width="1" fill="none" opacity="0.32"/><path d="M 689.0 578.2 q 15.1 -3 30.2 0" stroke="#557a76" stroke-width="1" fill="none" opacity="0.32"/><path d="M 734.2 578.2 q 12.6 -3 25.3 0" stroke="#557a76" stroke-width="1" fill="none" opacity="0.32"/><path d="M 772.4 578.2 q 12.9 -3 25.9 0" stroke="#557a76" stroke-width="1" fill="none" opacity="0.32"/><path d="M 76.0 590.2 q 14.3 -3 28.6 0" stroke="#557a76" stroke-width="1" fill="none" opacity="0.32"/><path d="M 125.3 590.2 q 12.8 -3 25.7 0" stroke="#557a76" stroke-width="1" fill="none" opacity="0.32"/><path d="M 165.4 590.2 q 13.5 -3 27.0 0" stroke="#557a76" stroke-width="1" fill="none" opacity="0.32"/><path d="M 212.6 590.2 q 15.6 -3 31.2 0" stroke="#557a76" stroke-width="1" fill="none" opacity="0.32"/><path d="M 260.0 590.2 q 13.2 -3 26.3 0" stroke="#557a76" stroke-width="1" fill="none" opacity="0.32"/><path d="M 305.5 590.2 q 15.6 -3 31.2 0" stroke="#557a76" stroke-width="1" fill="none" opacity="0.32"/><path d="M 349.0 590.2 q 15.1 -3 30.3 0" stroke="#557a76" stroke-width="1" fill="none" opacity="0.32"/><path d="M 400.4 590.2 q 14.5 -3 29.1 0" stroke="#557a76" stroke-width="1" fill="none" opacity="0.32"/><path d="M 439.9 590.2 q 16.0 -3 31.9 0" stroke="#557a76" stroke-width="1" fill="none" opacity="0.32"/><path d="M 485.1 590.2 q 13.0 -3 26.1 0" stroke="#557a76" stroke-width="1" fill="none" opacity="0.32"/><path d="M 529.1 590.2 q 13.2 -3 26.3 0" stroke="#557a76" stroke-width="1" fill="none" opacity="0.32"/><path d="M 572.0 590.2 q 11.2 -3 22.3 0" stroke="#557a76" stroke-width="1" fill="none" opacity="0.32"/><path d="M 610.3 590.2 q 14.2 -3 28.3 0" stroke="#557a76" stroke-width="1" fill="none" opacity="0.32"/><path d="M 649.5 590.2 q 10.4 -3 20.9 0" stroke="#557a76" stroke-width="1" fill="none" opacity="0.32"/><path d="M 692.1 590.2 q 9.0 -3 18.1 0" stroke="#557a76" stroke-width="1" fill="none" opacity="0.32"/><path d="M 727.1 590.2 q 11.6 -3 23.1 0" stroke="#557a76" stroke-width="1" fill="none" opacity="0.32"/><path d="M 761.1 590.2 q 15.3 -3 30.6 0" stroke="#557a76" stroke-width="1" fill="none" opacity="0.32"/><path d="M 811.5 590.2 q 13.6 -3 27.1 0" stroke="#557a76" stroke-width="1" fill="none" opacity="0.32"/><path d="M 76.0 602.2 q 15.1 -3 30.3 0" stroke="#557a76" stroke-width="1" fill="none" opacity="0.32"/><path d="M 118.1 602.2 q 13.5 -3 27.0 0" stroke="#557a76" stroke-width="1" fill="none" opacity="0.32"/><path d="M 155.4 602.2 q 14.6 -3 29.2 0" stroke="#557a76" stroke-width="1" fill="none" opacity="0.32"/><path d="M 206.5 602.2 q 12.3 -3 24.7 0" stroke="#557a76" stroke-width="1" fill="none" opacity="0.32"/><path d="M 243.1 602.2 q 15.9 -3 31.9 0" stroke="#557a76" stroke-width="1" fill="none" opacity="0.32"/><path d="M 295.8 602.2 q 12.4 -3 24.9 0" stroke="#557a76" stroke-width="1" fill="none" opacity="0.32"/><path d="M 333.0 602.2 q 11.7 -3 23.4 0" stroke="#557a76" stroke-width="1" fill="none" opacity="0.32"/><path d="M 376.0 602.2 q 11.6 -3 23.2 0" stroke="#557a76" stroke-width="1" fill="none" opacity="0.32"/><path d="M 412.5 602.2 q 12.7 -3 25.3 0" stroke="#557a76" stroke-width="1" fill="none" opacity="0.32"/><path d="M 450.6 602.2 q 9.9 -3 19.9 0" stroke="#557a76" stroke-width="1" fill="none" opacity="0.32"/><path d="M 480.6 602.2 q 12.9 -3 25.8 0" stroke="#557a76" stroke-width="1" fill="none" opacity="0.32"/><path d="M 525.0 602.2 q 10.7 -3 21.3 0" stroke="#557a76" stroke-width="1" fill="none" opacity="0.32"/><path d="M 567.6 602.2 q 11.4 -3 22.7 0" stroke="#557a76" stroke-width="1" fill="none" opacity="0.32"/><path d="M 606.5 602.2 q 12.2 -3 24.3 0" stroke="#557a76" stroke-width="1" fill="none" opacity="0.32"/><path d="M 645.5 602.2 q 10.0 -3 20.0 0" stroke="#557a76" stroke-width="1" fill="none" opacity="0.32"/><path d="M 679.6 602.2 q 14.4 -3 28.8 0" stroke="#557a76" stroke-width="1" fill="none" opacity="0.32"/><path d="M 722.9 602.2 q 11.5 -3 22.9 0" stroke="#557a76" stroke-width="1" fill="none" opacity="0.32"/><path d="M 760.3 602.2 q 14.9 -3 29.8 0" stroke="#557a76" stroke-width="1" fill="none" opacity="0.32"/><path d="M 809.2 602.2 q 9.5 -3 18.9 0" stroke="#557a76" stroke-width="1" fill="none" opacity="0.32"/><path d="M 76.0 614.2 q 14.5 -3 28.9 0" stroke="#557a76" stroke-width="1" fill="none" opacity="0.32"/><path d="M 121.8 614.2 q 12.7 -3 25.3 0" stroke="#557a76" stroke-width="1" fill="none" opacity="0.32"/><path d="M 159.2 614.2 q 14.1 -3 28.2 0" stroke="#557a76" stroke-width="1" fill="none" opacity="0.32"/><path d="M 199.8 614.2 q 11.9 -3 23.8 0" stroke="#557a76" stroke-width="1" fill="none" opacity="0.32"/><path d="M 241.4 614.2 q 13.3 -3 26.5 0" stroke="#557a76" stroke-width="1" fill="none" opacity="0.32"/><path d="M 286.9 614.2 q 13.5 -3 27.1 0" stroke="#557a76" stroke-width="1" fill="none" opacity="0.32"/><path d="M 325.1 614.2 q 10.0 -3 19.9 0" stroke="#557a76" stroke-width="1" fill="none" opacity="0.32"/><path d="M 362.8 614.2 q 13.0 -3 26.1 0" stroke="#557a76" stroke-width="1" fill="none" opacity="0.32"/><path d="M 409.5 614.2 q 15.4 -3 30.8 0" stroke="#557a76" stroke-width="1" fill="none" opacity="0.32"/><path d="M 453.7 614.2 q 12.0 -3 24.0 0" stroke="#557a76" stroke-width="1" fill="none" opacity="0.32"/><path d="M 487.8 614.2 q 9.9 -3 19.9 0" stroke="#557a76" stroke-width="1" fill="none" opacity="0.32"/><path d="M 525.5 614.2 q 14.4 -3 28.8 0" stroke="#557a76" stroke-width="1" fill="none" opacity="0.32"/><path d="M 572.2 614.2 q 15.1 -3 30.2 0" stroke="#557a76" stroke-width="1" fill="none" opacity="0.32"/><path d="M 613.6 614.2 q 13.8 -3 27.7 0" stroke="#557a76" stroke-width="1" fill="none" opacity="0.32"/><path d="M 651.2 614.2 q 11.7 -3 23.4 0" stroke="#557a76" stroke-width="1" fill="none" opacity="0.32"/><path d="M 690.9 614.2 q 13.5 -3 27.0 0" stroke="#557a76" stroke-width="1" fill="none" opacity="0.32"/><path d="M 729.4 614.2 q 14.3 -3 28.7 0" stroke="#557a76" stroke-width="1" fill="none" opacity="0.32"/><path d="M 769.0 614.2 q 9.4 -3 18.8 0" stroke="#557a76" stroke-width="1" fill="none" opacity="0.32"/><path d="M 807.6 614.2 q 10.8 -3 21.5 0" stroke="#557a76" stroke-width="1" fill="none" opacity="0.32"/><path d="M 76.0 626.2 q 9.2 -3 18.5 0" stroke="#557a76" stroke-width="1" fill="none" opacity="0.32"/><path d="M 107.9 626.2 q 10.5 -3 21.0 0" stroke="#557a76" stroke-width="1" fill="none" opacity="0.32"/><path d="M 148.5 626.2 q 10.4 -3 20.9 0" stroke="#557a76" stroke-width="1" fill="none" opacity="0.32"/><path d="M 181.3 626.2 q 9.8 -3 19.6 0" stroke="#557a76" stroke-width="1" fill="none" opacity="0.32"/><path d="M 218.3 626.2 q 12.0 -3 24.0 0" stroke="#557a76" stroke-width="1" fill="none" opacity="0.32"/><path d="M 260.3 626.2 q 12.8 -3 25.6 0" stroke="#557a76" stroke-width="1" fill="none" opacity="0.32"/><path d="M 306.5 626.2 q 12.5 -3 25.0 0" stroke="#557a76" stroke-width="1" fill="none" opacity="0.32"/><path d="M 343.9 626.2 q 10.7 -3 21.3 0" stroke="#557a76" stroke-width="1" fill="none" opacity="0.32"/><path d="M 376.1 626.2 q 10.7 -3 21.4 0" stroke="#557a76" stroke-width="1" fill="none" opacity="0.32"/><path d="M 417.9 626.2 q 15.8 -3 31.5 0" stroke="#557a76" stroke-width="1" fill="none" opacity="0.32"/><path d="M 470.4 626.2 q 11.5 -3 23.0 0" stroke="#557a76" stroke-width="1" fill="none" opacity="0.32"/><path d="M 512.8 626.2 q 12.5 -3 25.1 0" stroke="#557a76" stroke-width="1" fill="none" opacity="0.32"/><path d="M 548.2 626.2 q 11.2 -3 22.3 0" stroke="#557a76" stroke-width="1" fill="none" opacity="0.32"/><path d="M 589.4 626.2 q 10.6 -3 21.2 0" stroke="#557a76" stroke-width="1" fill="none" opacity="0.32"/><path d="M 631.2 626.2 q 11.7 -3 23.4 0" stroke="#557a76" stroke-width="1" fill="none" opacity="0.32"/><path d="M 664.8 626.2 q 11.5 -3 22.9 0" stroke="#557a76" stroke-width="1" fill="none" opacity="0.32"/><path d="M 702.2 626.2 q 13.0 -3 26.0 0" stroke="#557a76" stroke-width="1" fill="none" opacity="0.32"/><path d="M 738.9 626.2 q 11.1 -3 22.2 0" stroke="#557a76" stroke-width="1" fill="none" opacity="0.32"/><path d="M 773.3 626.2 q 14.3 -3 28.7 0" stroke="#557a76" stroke-width="1" fill="none" opacity="0.32"/><path d="M 76.0 638.2 q 12.2 -3 24.4 0" stroke="#557a76" stroke-width="1" fill="none" opacity="0.32"/><path d="M 114.9 638.2 q 14.2 -3 28.3 0" stroke="#557a76" stroke-width="1" fill="none" opacity="0.32"/><path d="M 163.3 638.2 q 10.6 -3 21.1 0" stroke="#557a76" stroke-width="1" fill="none" opacity="0.32"/><path d="M 197.5 638.2 q 10.9 -3 21.9 0" stroke="#557a76" stroke-width="1" fill="none" opacity="0.32"/><path d="M 235.3 638.2 q 14.7 -3 29.3 0" stroke="#557a76" stroke-width="1" fill="none" opacity="0.32"/><path d="M 281.8 638.2 q 12.5 -3 24.9 0" stroke="#557a76" stroke-width="1" fill="none" opacity="0.32"/><path d="M 320.3 638.2 q 9.7 -3 19.4 0" stroke="#557a76" stroke-width="1" fill="none" opacity="0.32"/><path d="M 360.9 638.2 q 9.3 -3 18.6 0" stroke="#557a76" stroke-width="1" fill="none" opacity="0.32"/><path d="M 393.5 638.2 q 11.0 -3 22.0 0" stroke="#557a76" stroke-width="1" fill="none" opacity="0.32"/><path d="M 433.1 638.2 q 15.7 -3 31.3 0" stroke="#557a76" stroke-width="1" fill="none" opacity="0.32"/><path d="M 476.5 638.2 q 14.6 -3 29.2 0" stroke="#557a76" stroke-width="1" fill="none" opacity="0.32"/><path d="M 522.4 638.2 q 10.1 -3 20.2 0" stroke="#557a76" stroke-width="1" fill="none" opacity="0.32"/><path d="M 563.1 638.2 q 10.1 -3 20.2 0" stroke="#557a76" stroke-width="1" fill="none" opacity="0.32"/><path d="M 595.2 638.2 q 13.5 -3 26.9 0" stroke="#557a76" stroke-width="1" fill="none" opacity="0.32"/><path d="M 637.6 638.2 q 15.8 -3 31.7 0" stroke="#557a76" stroke-width="1" fill="none" opacity="0.32"/><path d="M 684.4 638.2 q 14.8 -3 29.5 0" stroke="#557a76" stroke-width="1" fill="none" opacity="0.32"/><path d="M 731.6 638.2 q 13.6 -3 27.2 0" stroke="#557a76" stroke-width="1" fill="none" opacity="0.32"/><path d="M 774.7 638.2 q 15.9 -3 31.9 0" stroke="#557a76" stroke-width="1" fill="none" opacity="0.32"/><path d="M 76.0 650.2 q 14.8 -3 29.6 0" stroke="#557a76" stroke-width="1" fill="none" opacity="0.32"/><path d="M 127.0 650.2 q 16.0 -3 32.0 0" stroke="#557a76" stroke-width="1" fill="none" opacity="0.32"/><path d="M 179.3 650.2 q 11.8 -3 23.5 0" stroke="#557a76" stroke-width="1" fill="none" opacity="0.32"/><path d="M 223.8 650.2 q 9.3 -3 18.6 0" stroke="#557a76" stroke-width="1" fill="none" opacity="0.32"/><path d="M 256.1 650.2 q 14.2 -3 28.4 0" stroke="#557a76" stroke-width="1" fill="none" opacity="0.32"/><path d="M 304.4 650.2 q 15.7 -3 31.3 0" stroke="#557a76" stroke-width="1" fill="none" opacity="0.32"/><path d="M 346.5 650.2 q 12.3 -3 24.6 0" stroke="#557a76" stroke-width="1" fill="none" opacity="0.32"/><path d="M 384.6 650.2 q 12.3 -3 24.7 0" stroke="#557a76" stroke-width="1" fill="none" opacity="0.32"/><path d="M 423.8 650.2 q 14.5 -3 29.0 0" stroke="#557a76" stroke-width="1" fill="none" opacity="0.32"/><path d="M 464.3 650.2 q 9.0 -3 18.1 0" stroke="#557a76" stroke-width="1" fill="none" opacity="0.32"/><path d="M 495.9 650.2 q 15.2 -3 30.3 0" stroke="#557a76" stroke-width="1" fill="none" opacity="0.32"/><path d="M 545.9 650.2 q 13.2 -3 26.4 0" stroke="#557a76" stroke-width="1" fill="none" opacity="0.32"/><path d="M 589.4 650.2 q 12.9 -3 25.9 0" stroke="#557a76" stroke-width="1" fill="none" opacity="0.32"/><path d="M 626.3 650.2 q 10.2 -3 20.4 0" stroke="#557a76" stroke-width="1" fill="none" opacity="0.32"/><path d="M 664.9 650.2 q 14.5 -3 29.1 0" stroke="#557a76" stroke-width="1" fill="none" opacity="0.32"/><path d="M 705.3 650.2 q 12.3 -3 24.6 0" stroke="#557a76" stroke-width="1" fill="none" opacity="0.32"/><path d="M 749.1 650.2 q 14.2 -3 28.3 0" stroke="#557a76" stroke-width="1" fill="none" opacity="0.32"/><path d="M 789.8 650.2 q 15.7 -3 31.5 0" stroke="#557a76" stroke-width="1" fill="none" opacity="0.32"/><g filter="url(#rough)"><path d="M 58.0 537.8 L 68.7 538.2 L 79.4 537.6 L 90.2 536.4 L 100.9 535.0 L 111.6 533.9 L 122.3 533.5 L 133.1 533.7 L 143.8 533.9 L 154.5 533.8 L 165.2 532.8 L 175.9 530.8 L 186.7 528.2 L 197.4 525.5 L 208.1 523.4 L 218.8 522.2 L 229.6 522.2 L 240.3 522.9 L 251.0 523.7 L 261.7 524.2 L 272.4 524.1 L 283.2 523.3 L 293.9 522.5 L 304.6 522.0 L 315.3 522.2 L 326.1 523.3 L 336.8 524.9 L 347.5 526.3 L 358.2 527.0 L 368.9 526.7 L 379.7 525.3 L 390.4 523.3 L 401.1 521.3 L 411.8 519.9 L 422.6 519.4 L 433.3 519.7 L 444.0 520.2 L 454.7 520.4 L 465.4 520.1 L 476.2 519.2 L 486.9 518.0 L 497.6 517.1 L 508.3 517.0 L 519.1 518.1 L 529.8 520.1 L 540.5 522.5 L 551.2 524.7 L 561.9 526.2 L 572.7 526.7 L 583.4 526.3 L 594.1 525.7 L 604.8 525.4 L 615.6 525.7 L 626.3 526.6 L 637.0 527.8 L 647.7 528.7 L 658.4 528.8 L 669.2 528.1 L 679.9 526.7 L 690.6 525.1 L 701.3 524.1 L 712.1 524.1 L 722.8 525.2 L 733.5 527.1 L 744.2 529.3 L 754.9 531.2 L 765.7 532.3 L 776.4 532.8 L 787.1 533.0 L 797.8 533.4 L 808.6 534.5 L 819.3 536.3 L 830.0 538.6 L 830.0 28.0 L 58.0 28.0 Z" fill="url(#landg)" stroke="#6b5a3f" stroke-width="2.2" stroke-opacity="0.55"/><path d="M 58.0 537.8 L 58.0 537.8 L 68.7 538.2 L 79.4 537.6 L 90.2 536.4 L 100.9 535.0 L 111.6 533.9 L 122.3 533.5 L 133.1 533.7 L 143.8 533.9 L 154.5 533.8 L 165.2 532.8 L 175.9 530.8 L 186.7 528.2 L 197.4 525.5 L 208.1 523.4 L 218.8 522.2 L 229.6 522.2 L 240.3 522.9 L 251.0 523.7 L 261.7 524.2 L 272.4 524.1 L 283.2 523.3 L 293.9 522.5 L 304.6 522.0 L 315.3 522.2 L 326.1 523.3 L 336.8 524.9 L 347.5 526.3 L 358.2 527.0 L 368.9 526.7 L 379.7 525.3 L 390.4 523.3 L 401.1 521.3 L 411.8 519.9 L 422.6 519.4 L 433.3 519.7 L 444.0 520.2 L 454.7 520.4 L 465.4 520.1 L 476.2 519.2 L 486.9 518.0 L 497.6 517.1 L 508.3 517.0 L 519.1 518.1 L 529.8 520.1 L 540.5 522.5 L 551.2 524.7 L 561.9 526.2 L 572.7 526.7 L 583.4 526.3 L 594.1 525.7 L 604.8 525.4 L 615.6 525.7 L 626.3 526.6 L 637.0 527.8 L 647.7 528.7 L 658.4 528.8 L 669.2 528.1 L 679.9 526.7 L 690.6 525.1 L 701.3 524.1 L 712.1 524.1 L 722.8 525.2 L 733.5 527.1 L 744.2 529.3 L 754.9 531.2 L 765.7 532.3 L 776.4 532.8 L 787.1 533.0 L 797.8 533.4 L 808.6 534.5 L 819.3 536.3 L 830.0 538.6 L 830.0 521.6 L 819.3 519.3 L 808.6 517.5 L 797.8 516.4 L 787.1 516.0 L 776.4 515.8 L 765.7 515.3 L 754.9 514.2 L 744.2 512.3 L 733.5 510.1 L 722.8 508.2 L 712.1 507.1 L 701.3 507.1 L 690.6 508.1 L 679.9 509.7 L 669.2 511.1 L 658.4 511.8 L 647.7 511.7 L 637.0 510.8 L 626.3 509.6 L 615.6 508.7 L 604.8 508.4 L 594.1 508.7 L 583.4 509.3 L 572.7 509.7 L 561.9 509.2 L 551.2 507.7 L 540.5 505.5 L 529.8 503.1 L 519.1 501.1 L 508.3 500.0 L 497.6 500.1 L 486.9 501.0 L 476.2 502.2 L 465.4 503.1 L 454.7 503.4 L 444.0 503.2 L 433.3 502.7 L 422.6 502.4 L 411.8 502.9 L 401.1 504.3 L 390.4 506.3 L 379.7 508.3 L 368.9 509.7 L 358.2 510.0 L 347.5 509.3 L 336.8 507.9 L 326.1 506.3 L 315.3 505.2 L 304.6 505.0 L 293.9 505.5 L 283.2 506.3 L 272.4 507.1 L 261.7 507.2 L 251.0 506.7 L 240.3 505.9 L 229.6 505.2 L 218.8 505.2 L 208.1 506.4 L 197.4 508.5 L 186.7 511.2 L 175.9 513.8 L 165.2 515.8 L 154.5 516.8 L 143.8 516.9 L 133.1 516.7 L 122.3 516.5 L 111.6 516.9 L 100.9 518.0 L 90.2 519.4 L 79.4 520.6 L 68.7 521.2 L 58.0 520.8 Z" fill="#ead9a8" fill-opacity="0.86" stroke="#c9b57e" stroke-width="1" stroke-opacity="0.6"/></g><path d="M 84.0 330.7 C 248.0 296.4, 468.0 347.8, 802.0 305.0" fill="none" stroke="#4f6448" stroke-width="9" stroke-linecap="round" opacity="0.16"/><text x="82.0" y="293.0" font-size="12" fill="#4f6448" letter-spacing="3" opacity="0.8">北侧林线 / 未完全探明</text><g filter="url(#rough)"><path d="M 664.4 444.7 L 661.9 444.7 L 664.4 437.7 L 666.8 444.7 Z" fill="#78906b" opacity="0.45"/><path d="M 648.6 441.2 L 645.8 441.2 L 648.6 433.3 L 651.3 441.2 Z" fill="#4f6448" opacity="0.56"/><path d="M 691.9 469.3 L 690.3 469.3 L 691.9 464.8 L 693.5 469.3 Z" fill="#78906b" opacity="0.50"/><path d="M 551.9 274.7 L 549.8 274.7 L 551.9 268.6 L 554.0 274.7 Z" fill="#4f6448" opacity="0.53"/><path d="M 695.1 181.3 L 692.4 181.3 L 695.1 173.7 L 697.7 181.3 Z" fill="#78906b" opacity="0.66"/><path d="M 625.0 339.3 L 622.7 339.3 L 625.0 332.8 L 627.2 339.3 Z" fill="#4f6448" opacity="0.55"/><path d="M 92.7 260.8 L 90.8 260.8 L 92.7 255.4 L 94.5 260.8 Z" fill="#78906b" opacity="0.58"/><path d="M 401.0 408.2 L 399.0 408.2 L 401.0 402.5 L 403.0 408.2 Z" fill="#4f6448" opacity="0.48"/><path d="M 262.2 287.7 L 260.2 287.7 L 262.2 282.0 L 264.2 287.7 Z" fill="#4f6448" opacity="0.57"/><path d="M 105.7 335.0 L 102.9 335.0 L 105.7 327.1 L 108.5 335.0 Z" fill="#4f6448" opacity="0.44"/><path d="M 158.8 359.2 L 156.2 359.2 L 158.8 351.9 L 161.3 359.2 Z" fill="#78906b" opacity="0.65"/><path d="M 525.3 234.5 L 522.6 234.5 L 525.3 226.8 L 528.0 234.5 Z" fill="#78906b" opacity="0.42"/><path d="M 566.2 227.1 L 563.6 227.1 L 566.2 219.5 L 568.9 227.1 Z" fill="#78906b" opacity="0.59"/><path d="M 201.6 208.7 L 199.9 208.7 L 201.6 204.1 L 203.2 208.7 Z" fill="#78906b" opacity="0.62"/><path d="M 639.8 446.0 L 638.1 446.0 L 639.8 441.3 L 641.4 446.0 Z" fill="#78906b" opacity="0.53"/><path d="M 415.4 470.5 L 413.8 470.5 L 415.4 466.1 L 416.9 470.5 Z" fill="#4f6448" opacity="0.39"/><path d="M 778.7 363.9 L 776.5 363.9 L 778.7 357.7 L 780.8 363.9 Z" fill="#4f6448" opacity="0.44"/><path d="M 459.5 405.0 L 457.9 405.0 L 459.5 400.4 L 461.1 405.0 Z" fill="#4f6448" opacity="0.49"/><path d="M 521.3 364.5 L 519.6 364.5 L 521.3 359.5 L 523.0 364.5 Z" fill="#4f6448" opacity="0.60"/><path d="M 216.5 431.0 L 214.5 431.0 L 216.5 425.4 L 218.4 431.0 Z" fill="#4f6448" opacity="0.64"/><path d="M 160.9 183.3 L 158.7 183.3 L 160.9 177.0 L 163.1 183.3 Z" fill="#78906b" opacity="0.62"/><path d="M 748.5 445.9 L 746.2 445.9 L 748.5 439.4 L 750.7 445.9 Z" fill="#78906b" opacity="0.41"/><path d="M 594.5 181.9 L 592.6 181.9 L 594.5 176.6 L 596.3 181.9 Z" fill="#4f6448" opacity="0.40"/><path d="M 258.3 457.9 L 256.4 457.9 L 258.3 452.6 L 260.1 457.9 Z" fill="#4f6448" opacity="0.46"/><path d="M 115.5 305.3 L 113.8 305.3 L 115.5 300.3 L 117.3 305.3 Z" fill="#78906b" opacity="0.50"/><path d="M 794.4 292.7 L 792.5 292.7 L 794.4 287.2 L 796.3 292.7 Z" fill="#4f6448" opacity="0.58"/><path d="M 85.3 397.7 L 82.8 397.7 L 85.3 390.5 L 87.8 397.7 Z" fill="#78906b" opacity="0.44"/><path d="M 171.1 222.6 L 168.5 222.6 L 171.1 215.2 L 173.7 222.6 Z" fill="#4f6448" opacity="0.39"/><path d="M 494.5 265.5 L 493.0 265.5 L 494.5 261.1 L 496.1 265.5 Z" fill="#78906b" opacity="0.45"/><path d="M 120.6 468.2 L 117.9 468.2 L 120.6 460.5 L 123.3 468.2 Z" fill="#78906b" opacity="0.46"/><path d="M 347.2 425.4 L 345.2 425.4 L 347.2 419.7 L 349.2 425.4 Z" fill="#4f6448" opacity="0.53"/><path d="M 113.8 420.1 L 112.1 420.1 L 113.8 415.1 L 115.6 420.1 Z" fill="#4f6448" opacity="0.61"/><path d="M 729.8 189.7 L 728.0 189.7 L 729.8 184.5 L 731.6 189.7 Z" fill="#78906b" opacity="0.38"/><path d="M 300.9 199.8 L 298.7 199.8 L 300.9 193.4 L 303.2 199.8 Z" fill="#78906b" opacity="0.58"/><path d="M 439.6 218.6 L 437.5 218.6 L 439.6 212.7 L 441.6 218.6 Z" fill="#78906b" opacity="0.48"/><path d="M 510.6 366.6 L 508.2 366.6 L 510.6 359.7 L 513.0 366.6 Z" fill="#4f6448" opacity="0.50"/><path d="M 302.3 476.3 L 300.4 476.3 L 302.3 470.9 L 304.2 476.3 Z" fill="#78906b" opacity="0.57"/><path d="M 466.6 227.7 L 464.4 227.7 L 466.6 221.2 L 468.9 227.7 Z" fill="#4f6448" opacity="0.55"/><path d="M 382.2 422.9 L 379.5 422.9 L 382.2 415.2 L 384.9 422.9 Z" fill="#4f6448" opacity="0.58"/><path d="M 287.2 414.5 L 284.7 414.5 L 287.2 407.3 L 289.7 414.5 Z" fill="#4f6448" opacity="0.59"/><path d="M 207.8 208.2 L 205.2 208.2 L 207.8 200.7 L 210.5 208.2 Z" fill="#78906b" opacity="0.36"/><path d="M 404.1 315.5 L 402.2 315.5 L 404.1 310.0 L 406.1 315.5 Z" fill="#78906b" opacity="0.40"/><path d="M 628.3 188.5 L 626.3 188.5 L 628.3 182.9 L 630.3 188.5 Z" fill="#78906b" opacity="0.58"/><path d="M 463.5 194.8 L 461.6 194.8 L 463.5 189.3 L 465.5 194.8 Z" fill="#78906b" opacity="0.54"/><path d="M 643.7 470.5 L 641.0 470.5 L 643.7 462.7 L 646.4 470.5 Z" fill="#78906b" opacity="0.62"/><path d="M 429.6 239.4 L 427.7 239.4 L 429.6 234.0 L 431.4 239.4 Z" fill="#78906b" opacity="0.41"/><path d="M 480.0 337.8 L 477.5 337.8 L 480.0 330.7 L 482.4 337.8 Z" fill="#78906b" opacity="0.60"/><path d="M 636.8 475.8 L 635.1 475.8 L 636.8 471.1 L 638.4 475.8 Z" fill="#4f6448" opacity="0.42"/><path d="M 432.2 388.5 L 430.6 388.5 L 432.2 383.7 L 433.9 388.5 Z" fill="#78906b" opacity="0.47"/><path d="M 463.7 321.6 L 461.9 321.6 L 463.7 316.5 L 465.5 321.6 Z" fill="#78906b" opacity="0.44"/><path d="M 750.6 417.0 L 748.9 417.0 L 750.6 412.2 L 752.3 417.0 Z" fill="#78906b" opacity="0.61"/><path d="M 346.8 381.6 L 345.1 381.6 L 346.8 376.7 L 348.5 381.6 Z" fill="#4f6448" opacity="0.59"/><path d="M 747.9 456.0 L 746.0 456.0 L 747.9 450.4 L 749.9 456.0 Z" fill="#78906b" opacity="0.54"/><path d="M 754.6 382.8 L 752.1 382.8 L 754.6 375.9 L 757.0 382.8 Z" fill="#4f6448" opacity="0.59"/><path d="M 792.9 317.1 L 790.9 317.1 L 792.9 311.6 L 794.8 317.1 Z" fill="#4f6448" opacity="0.55"/><path d="M 133.0 308.0 L 130.4 308.0 L 133.0 300.7 L 135.5 308.0 Z" fill="#4f6448" opacity="0.57"/><path d="M 617.9 205.3 L 615.5 205.3 L 617.9 198.4 L 620.3 205.3 Z" fill="#78906b" opacity="0.42"/><path d="M 510.4 258.9 L 508.8 258.9 L 510.4 254.4 L 512.0 258.9 Z" fill="#78906b" opacity="0.44"/><path d="M 128.3 462.7 L 126.7 462.7 L 128.3 458.3 L 129.8 462.7 Z" fill="#78906b" opacity="0.55"/><path d="M 756.4 231.8 L 754.2 231.8 L 756.4 225.6 L 758.6 231.8 Z" fill="#4f6448" opacity="0.41"/><path d="M 113.0 249.6 L 110.4 249.6 L 113.0 242.2 L 115.6 249.6 Z" fill="#78906b" opacity="0.46"/><path d="M 656.8 181.0 L 654.2 181.0 L 656.8 173.6 L 659.4 181.0 Z" fill="#4f6448" opacity="0.37"/><path d="M 170.2 373.5 L 168.0 373.5 L 170.2 367.3 L 172.4 373.5 Z" fill="#78906b" opacity="0.53"/><path d="M 666.8 387.8 L 665.0 387.8 L 666.8 382.7 L 668.6 387.8 Z" fill="#78906b" opacity="0.56"/><path d="M 402.4 342.4 L 399.9 342.4 L 402.4 335.3 L 404.9 342.4 Z" fill="#4f6448" opacity="0.60"/><path d="M 611.7 478.5 L 609.0 478.5 L 611.7 470.8 L 614.4 478.5 Z" fill="#78906b" opacity="0.38"/><path d="M 248.4 191.5 L 246.3 191.5 L 248.4 185.7 L 250.4 191.5 Z" fill="#78906b" opacity="0.42"/><path d="M 445.8 311.7 L 443.9 311.7 L 445.8 306.2 L 447.8 311.7 Z" fill="#4f6448" opacity="0.64"/><path d="M 287.3 299.2 L 285.6 299.2 L 287.3 294.1 L 289.1 299.2 Z" fill="#4f6448" opacity="0.63"/><path d="M 802.9 200.9 L 800.9 200.9 L 802.9 195.2 L 804.9 200.9 Z" fill="#4f6448" opacity="0.43"/><path d="M 480.4 425.8 L 478.6 425.8 L 480.4 420.6 L 482.3 425.8 Z" fill="#4f6448" opacity="0.61"/><path d="M 717.5 335.0 L 715.2 335.0 L 717.5 328.6 L 719.7 335.0 Z" fill="#4f6448" opacity="0.55"/><path d="M 704.1 231.9 L 701.4 231.9 L 704.1 224.2 L 706.8 231.9 Z" fill="#78906b" opacity="0.42"/><path d="M 122.0 210.2 L 120.0 210.2 L 122.0 204.5 L 124.1 210.2 Z" fill="#4f6448" opacity="0.47"/><path d="M 426.0 254.1 L 424.0 254.1 L 426.0 248.4 L 428.0 254.1 Z" fill="#4f6448" opacity="0.37"/><path d="M 297.0 418.0 L 294.8 418.0 L 297.0 411.8 L 299.2 418.0 Z" fill="#4f6448" opacity="0.40"/><path d="M 482.2 260.6 L 480.5 260.6 L 482.2 255.8 L 483.9 260.6 Z" fill="#4f6448" opacity="0.58"/><path d="M 625.6 242.5 L 623.3 242.5 L 625.6 235.8 L 628.0 242.5 Z" fill="#78906b" opacity="0.45"/><path d="M 160.1 404.6 L 158.3 404.6 L 160.1 399.6 L 161.8 404.6 Z" fill="#78906b" opacity="0.56"/><path d="M 728.9 311.6 L 726.6 311.6 L 728.9 305.0 L 731.2 311.6 Z" fill="#78906b" opacity="0.54"/><path d="M 620.9 341.4 L 619.0 341.4 L 620.9 335.7 L 622.9 341.4 Z" fill="#78906b" opacity="0.57"/><path d="M 792.4 235.4 L 790.4 235.4 L 792.4 229.5 L 794.5 235.4 Z" fill="#4f6448" opacity="0.58"/><path d="M 168.4 263.7 L 165.8 263.7 L 168.4 256.4 L 170.9 263.7 Z" fill="#78906b" opacity="0.47"/><path d="M 697.8 268.1 L 695.3 268.1 L 697.8 260.9 L 700.3 268.1 Z" fill="#78906b" opacity="0.43"/><path d="M 263.2 230.3 L 261.3 230.3 L 263.2 224.9 L 265.1 230.3 Z" fill="#78906b" opacity="0.49"/><path d="M 456.4 418.9 L 454.0 418.9 L 456.4 412.0 L 458.8 418.9 Z" fill="#78906b" opacity="0.62"/><path d="M 504.0 422.1 L 501.8 422.1 L 504.0 415.7 L 506.3 422.1 Z" fill="#78906b" opacity="0.55"/><path d="M 765.2 204.0 L 762.9 204.0 L 765.2 197.4 L 767.5 204.0 Z" fill="#78906b" opacity="0.53"/><path d="M 782.2 373.3 L 780.0 373.3 L 782.2 366.8 L 784.5 373.3 Z" fill="#4f6448" opacity="0.56"/><path d="M 800.2 437.7 L 798.3 437.7 L 800.2 432.3 L 802.1 437.7 Z" fill="#78906b" opacity="0.46"/><path d="M 637.0 470.4 L 635.3 470.4 L 637.0 465.7 L 638.6 470.4 Z" fill="#4f6448" opacity="0.46"/><path d="M 431.9 255.5 L 430.1 255.5 L 431.9 250.3 L 433.7 255.5 Z" fill="#78906b" opacity="0.50"/><path d="M 486.5 225.5 L 484.8 225.5 L 486.5 220.7 L 488.2 225.5 Z" fill="#4f6448" opacity="0.49"/><path d="M 381.0 461.0 L 378.5 461.0 L 381.0 453.7 L 383.6 461.0 Z" fill="#78906b" opacity="0.50"/><path d="M 477.2 449.6 L 475.5 449.6 L 477.2 444.5 L 479.0 449.6 Z" fill="#78906b" opacity="0.65"/><path d="M 634.4 332.3 L 632.0 332.3 L 634.4 325.6 L 636.7 332.3 Z" fill="#78906b" opacity="0.43"/><path d="M 321.5 317.2 L 319.5 317.2 L 321.5 311.4 L 323.5 317.2 Z" fill="#78906b" opacity="0.61"/><path d="M 642.0 436.0 L 640.0 436.0 L 642.0 430.4 L 643.9 436.0 Z" fill="#78906b" opacity="0.38"/><path d="M 343.3 340.8 L 340.9 340.8 L 343.3 333.8 L 345.8 340.8 Z" fill="#78906b" opacity="0.54"/><path d="M 499.0 417.0 L 497.0 417.0 L 499.0 411.5 L 500.9 417.0 Z" fill="#4f6448" opacity="0.59"/><path d="M 513.4 429.6 L 511.4 429.6 L 513.4 423.8 L 515.5 429.6 Z" fill="#78906b" opacity="0.42"/><path d="M 787.0 205.3 L 785.4 205.3 L 787.0 200.8 L 788.6 205.3 Z" fill="#4f6448" opacity="0.46"/><path d="M 252.6 455.9 L 249.9 455.9 L 252.6 448.2 L 255.3 455.9 Z" fill="#78906b" opacity="0.55"/><path d="M 570.7 338.3 L 567.9 338.3 L 570.7 330.3 L 573.5 338.3 Z" fill="#78906b" opacity="0.40"/><path d="M 612.7 294.5 L 610.7 294.5 L 612.7 288.9 L 614.6 294.5 Z" fill="#78906b" opacity="0.55"/><path d="M 654.8 265.0 L 652.0 265.0 L 654.8 257.1 L 657.6 265.0 Z" fill="#78906b" opacity="0.53"/><path d="M 587.7 378.8 L 585.9 378.8 L 587.7 373.6 L 589.5 378.8 Z" fill="#4f6448" opacity="0.61"/><path d="M 549.2 263.6 L 547.3 263.6 L 549.2 258.0 L 551.2 263.6 Z" fill="#78906b" opacity="0.50"/><path d="M 285.8 267.3 L 283.4 267.3 L 285.8 260.6 L 288.1 267.3 Z" fill="#78906b" opacity="0.59"/><path d="M 645.0 438.9 L 642.8 438.9 L 645.0 432.5 L 647.2 438.9 Z" fill="#4f6448" opacity="0.59"/><path d="M 377.9 213.1 L 375.6 213.1 L 377.9 206.5 L 380.2 213.1 Z" fill="#78906b" opacity="0.52"/><path d="M 666.1 246.2 L 663.5 246.2 L 666.1 238.9 L 668.6 246.2 Z" fill="#4f6448" opacity="0.42"/><path d="M 573.6 279.4 L 572.0 279.4 L 573.6 274.9 L 575.2 279.4 Z" fill="#4f6448" opacity="0.61"/><path d="M 352.7 379.5 L 350.2 379.5 L 352.7 372.3 L 355.2 379.5 Z" fill="#78906b" opacity="0.60"/><path d="M 708.9 395.3 L 706.6 395.3 L 708.9 388.8 L 711.2 395.3 Z" fill="#4f6448" opacity="0.56"/></g><g opacity="0.82"><rect x="54" y="68" width="780" height="94.1" fill="#e9ece4" opacity="0.72"/><ellipse cx="605.0" cy="98.0" rx="87.8" ry="21.2" fill="#f7f8ef" opacity="0.48" filter="url(#soft)"/><ellipse cx="491.7" cy="130.0" rx="70.4" ry="25.8" fill="#f7f8ef" opacity="0.48" filter="url(#soft)"/><ellipse cx="308.9" cy="101.2" rx="76.8" ry="29.9" fill="#f7f8ef" opacity="0.48" filter="url(#soft)"/><ellipse cx="265.6" cy="131.0" rx="74.2" ry="28.4" fill="#f7f8ef" opacity="0.48" filter="url(#soft)"/><ellipse cx="522.4" cy="84.2" rx="65.2" ry="28.0" fill="#f7f8ef" opacity="0.48" filter="url(#soft)"/><ellipse cx="291.0" cy="85.0" rx="53.8" ry="19.0" fill="#f7f8ef" opacity="0.48" filter="url(#soft)"/><ellipse cx="609.6" cy="152.8" rx="57.7" ry="30.9" fill="#f7f8ef" opacity="0.48" filter="url(#soft)"/><ellipse cx="679.5" cy="93.0" rx="61.0" ry="29.3" fill="#f7f8ef" opacity="0.48" filter="url(#soft)"/><text x="444.0" y="142.0" text-anchor="middle" font-size="27" letter-spacing="11" fill="#6b5a3f" opacity="0.48">未　探　明</text></g><text x="444.0" y="92.0" text-anchor="middle" font-size="12" fill="#6b5a3f" letter-spacing="5" opacity="0.75">北：林线纵深 / 未探明</text><text x="820.0" y="382.0" text-anchor="end" font-size="12" fill="#6b5a3f" letter-spacing="3" opacity="0.72">东</text><text x="68.0" y="382.0" font-size="12" fill="#6b5a3f" letter-spacing="3" opacity="0.72">西</text><path d="M 428.6 424.8 Q 465.9 343.8 467.2 270.8" fill="none" stroke="#2477aa" stroke-width="2.3" stroke-dasharray="6 6" opacity="0.82" marker-end="url(#arrow-water)"/><g><rect x="482.9" y="336.8" width="72" height="21" rx="10" fill="#f7efd7" fill-opacity="0.72" stroke="#2477aa" stroke-width="1" opacity="0.96"/><text x="492.9" y="351.8" font-size="11.5" font-weight="700" fill="#2477aa">取水老路</text></g><path d="M 474.9 287.9 L 536.6 330.7 L 629.3 373.4" fill="none" stroke="#bf7b28" stroke-width="2.5" stroke-dasharray="3 5" opacity="0.88" marker-end="url(#arrow-clue)"/><g><rect x="647.3" y="385.4" width="143" height="21" rx="10" fill="#f7efd7" fill-opacity="0.72" stroke="#bf7b28" stroke-width="1" opacity="0.96"/><text x="657.3" y="400.4" font-size="11.5" font-weight="700" fill="#bf7b28">东南纵深 / 可能补给</text></g><path d="M 428.6 279.3 Q 451.7 261.3 474.9 287.9" fill="none" stroke="#bf7b28" stroke-width="1.2" stroke-dasharray="2 4" opacity="0.55"/><ellipse cx="320.5" cy="245.1" rx="74" ry="42" fill="#9b3f31" opacity="0.10" stroke="#9b3f31" stroke-width="1.6" stroke-dasharray="5 5"/><text x="242.5" y="199.1" font-size="12.5" fill="#9b3f31" font-weight="700">北边异常区</text><text x="242.5" y="216.1" font-size="10.5" fill="#6b5a3f">八次异常 / 非动物共识</text><g><circle cx="444.0" cy="536.0" r="12" fill="#f7efd7" fill-opacity="0.92" stroke="#667762" stroke-width="2.8"/><text x="444.0" y="540.3" text-anchor="middle" font-size="12" font-weight="800" fill="#667762">1</text></g><g><circle cx="197.0" cy="587.3" r="12" fill="#f7efd7" fill-opacity="0.92" stroke="#667762" stroke-width="2.8"/><text x="197.0" y="591.6" text-anchor="middle" font-size="12" font-weight="800" fill="#667762">2</text></g><text x="210.0" y="574.3" font-size="11.5" font-weight="700" fill="#667762" paint-order="stroke" stroke="#efe6c8" stroke-width="3">黑礁</text><g><circle cx="189.2" cy="570.2" r="12" fill="#f7efd7" fill-opacity="0.92" stroke="#bd4432" stroke-width="2.8"/><text x="189.2" y="574.5" text-anchor="middle" font-size="12" font-weight="800" fill="#bd4432">3</text></g><g><circle cx="428.6" cy="424.8" r="12" fill="#f7efd7" fill-opacity="0.92" stroke="#bd4432" stroke-width="2.8"/><text x="428.6" y="429.1" text-anchor="middle" font-size="12" font-weight="800" fill="#bd4432">4</text></g><text x="441.6" y="411.8" font-size="11.5" font-weight="700" fill="#bd4432" paint-order="stroke" stroke="#efe6c8" stroke-width="3">营地</text><g><circle cx="428.6" cy="339.2" r="12" fill="#f7efd7" fill-opacity="0.92" stroke="#667762" stroke-width="2.8" stroke-dasharray="3 3"/><text x="428.6" y="343.5" text-anchor="middle" font-size="12" font-weight="800" fill="#667762">5</text></g><g><circle cx="467.2" cy="270.8" r="12" fill="#f7efd7" fill-opacity="0.92" stroke="#2477aa" stroke-width="2.8"/><text x="467.2" y="275.1" text-anchor="middle" font-size="12" font-weight="800" fill="#2477aa">6</text></g><text x="480.2" y="257.8" font-size="11.5" font-weight="700" fill="#2477aa" paint-order="stroke" stroke="#efe6c8" stroke-width="3">淡水</text><g><circle cx="474.9" cy="287.9" r="12" fill="#f7efd7" fill-opacity="0.92" stroke="#bf7b28" stroke-width="2.8"/><text x="474.9" y="292.2" text-anchor="middle" font-size="12" font-weight="800" fill="#bf7b28">7</text></g><g><circle cx="536.6" cy="330.7" r="12" fill="#f7efd7" fill-opacity="0.92" stroke="#bf7b28" stroke-width="2.8"/><text x="536.6" y="335.0" text-anchor="middle" font-size="12" font-weight="800" fill="#bf7b28">8</text></g><g><circle cx="428.6" cy="279.3" r="12" fill="#f7efd7" fill-opacity="0.92" stroke="#bf7b28" stroke-width="2.8"/><text x="428.6" y="283.6" text-anchor="middle" font-size="12" font-weight="800" fill="#bf7b28">9</text></g><g><circle cx="629.3" cy="373.4" r="12" fill="#f7efd7" fill-opacity="0.92" stroke="#bf7b28" stroke-width="2.8"/><text x="629.3" y="377.7" text-anchor="middle" font-size="12" font-weight="800" fill="#bf7b28">10</text></g><text x="642.3" y="360.4" font-size="11.5" font-weight="700" fill="#bf7b28" paint-order="stroke" stroke="#efe6c8" stroke-width="3">营地</text><path d="M 183.1 543.2 Q 187.2 539.5 187.2 543.2 Q 187.2 539.5 191.2 543.2" fill="none" stroke="#557a76" stroke-width="1.3" opacity="0.62"/><path d="M 169.7 547.2 Q 175.7 541.8 175.7 547.2 Q 175.7 541.8 181.7 547.2" fill="none" stroke="#557a76" stroke-width="1.3" opacity="0.62"/><path d="M 170.8 535.7 Q 175.8 531.2 175.8 535.7 Q 175.8 531.2 180.7 535.7" fill="none" stroke="#557a76" stroke-width="1.3" opacity="0.62"/><path d="M 173.8 538.2 Q 179.2 533.3 179.2 538.2 Q 179.2 533.3 184.6 538.2" fill="none" stroke="#557a76" stroke-width="1.3" opacity="0.62"/><path d="M 197.1 552.2 Q 201.8 548.0 201.8 552.2 Q 201.8 548.0 206.4 552.2" fill="none" stroke="#557a76" stroke-width="1.3" opacity="0.62"/><g><rect x="858" y="74" width="292" height="616" rx="9" fill="#f7efd7" fill-opacity="0.58" stroke="#6b5a3f" stroke-width="1.2"/><text x="876" y="102" font-size="16" font-weight="800" fill="#443525" letter-spacing="3">编号索引</text><text x="876" y="122" font-size="10.8" fill="#6b5a3f">图上只放编号，详细说明集中在此。</text><g><circle cx="877.0" cy="140.0" r="12" fill="#f7efd7" fill-opacity="0.92" stroke="#667762" stroke-width="2.8"/><text x="877.0" y="144.3" text-anchor="middle" font-size="12" font-weight="800" fill="#667762">1</text></g><text x="898" y="141" font-size="12.5" font-weight="800" fill="#443525">弧形沙滩</text><text x="898" y="157" font-size="10.3" fill="#667762" font-weight="700">地形</text><text x="898" y="173" font-size="9.7" fill="#6b5a3f">迫降登陆点/沙白坡缓/退潮线散落残骸</text><g><circle cx="877.0" cy="188.0" r="12" fill="#f7efd7" fill-opacity="0.92" stroke="#667762" stroke-width="2.8"/><text x="877.0" y="192.3" text-anchor="middle" font-size="12" font-weight="800" fill="#667762">2</text></g><text x="898" y="189" font-size="12.5" font-weight="800" fill="#443525">北端黑礁石</text><text x="898" y="205" font-size="10.3" fill="#667762" font-weight="700">地形</text><text x="898" y="221" font-size="9.7" fill="#6b5a3f">探入海中/海鸥群栖；礁石根下沙滩第5天13:35浮尸上岸</text><g><circle cx="877.0" cy="236.0" r="12" fill="#f7efd7" fill-opacity="0.92" stroke="#bd4432" stroke-width="2.8"/><text x="877.0" y="240.3" text-anchor="middle" font-size="12" font-weight="800" fill="#bd4432">3</text></g><text x="898" y="237" font-size="12.5" font-weight="800" fill="#443525">同机乘客沙葬位(削白枝立标)</text><text x="898" y="253" font-size="10.3" fill="#bd4432" font-weight="700">据点</text><text x="898" y="269" font-size="9.7" fill="#6b5a3f">第5天14-16石头独力沙葬·第三块黑礁石上方一步·棕榈叶包…</text><g><circle cx="877.0" cy="284.0" r="12" fill="#f7efd7" fill-opacity="0.92" stroke="#bd4432" stroke-width="2.8"/><text x="877.0" y="288.3" text-anchor="middle" font-size="12" font-weight="800" fill="#bd4432">4</text></g><text x="898" y="285" font-size="12.5" font-weight="800" fill="#443525">据点·树荫营地</text><text x="898" y="301" font-size="10.3" fill="#bd4432" font-weight="700">据点</text><text x="898" y="317" font-size="9.7" fill="#6b5a3f">沙滩与林线交界树荫下/营火所在</text><g><circle cx="877.0" cy="332.0" r="12" fill="#f7efd7" fill-opacity="0.92" stroke="#667762" stroke-width="2.8" stroke-dasharray="3 3"/><text x="877.0" y="336.3" text-anchor="middle" font-size="12" font-weight="800" fill="#667762">5</text></g><text x="898" y="333" font-size="12.5" font-weight="800" fill="#443525">热带林线</text><text x="898" y="349" font-size="10.3" fill="#667762" font-weight="700">地形 · 部分</text><text x="898" y="365" font-size="9.7" fill="#6b5a3f">距沙滩约百米/密实阔叶+藤蔓/雨天守不住</text><g><circle cx="877.0" cy="380.0" r="12" fill="#f7efd7" fill-opacity="0.92" stroke="#2477aa" stroke-width="2.8"/><text x="877.0" y="384.3" text-anchor="middle" font-size="12" font-weight="800" fill="#2477aa">6</text></g><text x="898" y="381" font-size="12.5" font-weight="800" fill="#443525">淡水渗水出口</text><text x="898" y="397" font-size="10.3" fill="#2477aa" font-weight="700">资源</text><text x="898" y="413" font-size="9.7" fill="#6b5a3f">林内约50–60m/露根区岩层渗水/接水缓慢/煮沸后为唯一淡…</text><g><circle cx="877.0" cy="428.0" r="12" fill="#f7efd7" fill-opacity="0.92" stroke="#bf7b28" stroke-width="2.8"/><text x="877.0" y="432.3" text-anchor="middle" font-size="12" font-weight="800" fill="#bf7b28">7</text></g><text x="898" y="429" font-size="12.5" font-weight="800" fill="#443525">三道刀刻标路记号</text><text x="898" y="445" font-size="10.3" fill="#bf7b28" font-weight="700">线索</text><text x="898" y="461" font-size="9.7" fill="#6b5a3f">林内约30–60m/三道持续指向东南/非三人所留/年代不明</text><g><circle cx="877.0" cy="476.0" r="12" fill="#f7efd7" fill-opacity="0.92" stroke="#bf7b28" stroke-width="2.8"/><text x="877.0" y="480.3" text-anchor="middle" font-size="12" font-weight="800" fill="#bf7b28">8</text></g><text x="898" y="477" font-size="12.5" font-weight="800" fill="#443525">旧踩踏痕迹(无第四道)</text><text x="898" y="493" font-size="10.3" fill="#bf7b28" font-weight="700">线索</text><text x="898" y="509" font-size="9.7" fill="#6b5a3f">第三道刻痕东南约6–7m/非近期/有人走过但不再标路</text><g><circle cx="877.0" cy="524.0" r="12" fill="#f7efd7" fill-opacity="0.92" stroke="#bf7b28" stroke-width="2.8"/><text x="877.0" y="528.3" text-anchor="middle" font-size="12" font-weight="800" fill="#bf7b28">9</text></g><text x="898" y="525" font-size="12.5" font-weight="800" fill="#443525">陌生深色布片</text><text x="898" y="541" font-size="10.3" fill="#bf7b28" font-weight="700">线索</text><text x="898" y="557" font-size="9.7" fill="#6b5a3f">林内约40m/被划破/无血迹</text><g><circle cx="877.0" cy="572.0" r="12" fill="#f7efd7" fill-opacity="0.92" stroke="#bf7b28" stroke-width="2.8"/><text x="877.0" y="576.3" text-anchor="middle" font-size="12" font-weight="800" fill="#bf7b28">10</text></g><text x="898" y="573" font-size="12.5" font-weight="800" fill="#443525">东南据点(已搜查)</text><text x="898" y="589" font-size="10.3" fill="#bf7b28" font-weight="700">线索</text><text x="898" y="605" font-size="9.7" fill="#6b5a3f">岩壁凹处+枝条编架+绷布·经营有时日·主人先于三人在岛作业·…</text><line x1="876" y1="604" x2="928" y2="604" stroke="#2477aa" stroke-width="2.4" stroke-dasharray="6 6" marker-end="url(#arrow-water)"/><text x="940" y="608" font-size="11.5" fill="#6b5a3f">取水老路</text><line x1="876" y1="629" x2="928" y2="629" stroke="#bf7b28" stroke-width="2.4" stroke-dasharray="3 5" marker-end="url(#arrow-clue)"/><text x="940" y="633" font-size="11.5" fill="#6b5a3f">刻痕东南线</text><text x="876" y="672" font-size="10.2" fill="#9a8d72">虚线编号圈=部分/未探明；红虚区=北边异常。</text></g><g opacity="0.9"><circle cx="1102" cy="132" r="29" fill="#f7efd7" fill-opacity="0.45" stroke="#6b5a3f" stroke-width="1.2"/><path d="M 1102 107 L 1107 132 L 1102 157 L 1097 132 Z" fill="#6b5a3f" opacity="0.50"/><path d="M 1077 132 L 1102 127 L 1127 132 L 1102 137 Z" fill="#6b5a3f" opacity="0.30"/><path d="M 1102 107 L 1107 132 L 1102 132 Z" fill="#bd4432"/><text x="1102" y="96" text-anchor="middle" font-size="12" font-weight="700" fill="#bd4432">北</text><text x="1140" y="136" text-anchor="middle" font-size="11" fill="#6b5a3f">东</text><text x="1064" y="136" text-anchor="middle" font-size="11" fill="#6b5a3f">西</text><text x="1102" y="176" text-anchor="middle" font-size="11" fill="#557a76">南·海</text></g><text x="444.0" y="718" text-anchor="middle" font-size="13" fill="#557a76" letter-spacing="6" opacity="0.82">南：开 阔 海 面</text><text x="1158" y="733" text-anchor="end" font-size="10.8" fill="#6b5a3f" opacity="0.8">build_map.py · 源：fact-荒岛.md · 坐标为示意非实测</text></svg>