<svg xmlns="http://www.w3.org/2000/svg" viewBox="0 0 1014 1174.0" font-family="'PingFang SC','Hiragino Sans GB','Microsoft YaHei',sans-serif"><defs><linearGradient id="bg" x1="0" y1="0" x2="0" y2="1"><stop offset="0%" stop-color="#cdb590"/><stop offset="100%" stop-color="#9c855f"/></linearGradient><filter id="grain"><feTurbulence type="fractalNoise" baseFrequency="0.85" numOctaves="2" seed="3" result="n"/><feColorMatrix in="n" type="matrix" values="0 0 0 0 0.2 0 0 0 0 0.15 0 0 0 0 0.1 0 0 0 0.05 0"/></filter></defs><rect x="0" y="0" width="1014" height="1174.0" fill="url(#bg)"/><rect x="0" y="0" width="1014" height="1174.0" filter="url(#grain)"/><rect x="9" y="9" width="996" height="1156.0" rx="14" fill="none" stroke="#6f5638" stroke-width="7"/><rect x="16" y="16" width="982" height="1142.0" rx="10" fill="none" stroke="#9c855f" stroke-width="1.5" opacity="0.6"/><text x="40" y="64" font-size="27" font-weight="800" fill="#4a3b28" letter-spacing="1">物资补给</text><rect x="166" y="44" width="74" height="24" rx="12" fill="#6f5638" opacity="0.85"/><text x="203" y="61" text-anchor="middle" font-size="12.5" fill="#f3ecdc">清点中</text><text x="974" y="64" text-anchor="end" font-size="12.5" fill="#6f5e44">更新于 第6天 · 2027-04-17 · 00:00（第5天日结） · 共 24 件</text><line x1="40" y1="82" x2="974" y2="82" stroke="#6f5638" stroke-width="1.5" opacity="0.4"/><text x="40" y="104" font-size="12.5" fill="#6f5e44">家底（格子＝物品 · 底条＝状态/消耗 · 水显示余量比）</text><rect x="40.0" y="150.0" width="174" height="150" rx="12" fill="#bfa97f"/><rect x="40.0" y="150.0" width="174" height="147" rx="12" fill="#e7dcc2" stroke="#2f7fb0" stroke-opacity="0.5" stroke-width="1.5"/><rect x="43.0" y="153.0" width="168" height="5" rx="3" fill="#fbf4e3" opacity="0.7"/><text x="51.0" y="171.0" font-size="11" fill="#2f7fb0" font-weight="600">净水</text><rect x="140.0" y="159.0" width="65" height="20" rx="10" fill="#4a3b28" opacity="0.82"/><text x="172.5" y="173.0" text-anchor="middle" font-size="12.5" fill="#f3ecdc" font-weight="600">约3瓶级别</text><path d="M 127.0 193.0 C 140.0 208.0 136.0 221.0 127.0 221.0 C 118.0 221.0 114.0 208.0 127.0 193.0 Z" fill="#2f7fb0" opacity="0.9"/><ellipse cx="124.0" cy="210.0" rx="3" ry="5" fill="#fff" opacity="0.4"/><text x="127.0" y="242.0" text-anchor="middle" font-size="13.5" fill="#4a3b28" font-weight="600">已煮沸林内淡水</text><text x="52.0" y="271.0" font-size="10.5" fill="#5a9e5a">可用</text><rect x="52.0" y="276.0" width="150" height="8" rx="4" fill="#000" opacity="0.10"/><rect x="52.0" y="276.0" width="112.5" height="8" rx="4" fill="#5a9e5a"/><text x="202.0" y="271.0" text-anchor="end" font-size="10.5" fill="#6f5e44">3/4</text><rect x="230.0" y="150.0" width="174" height="150" rx="12" fill="#bfa97f"/><rect x="230.0" y="150.0" width="174" height="147" rx="12" fill="#e7dcc2" stroke="#2f7fb0" stroke-opacity="0.5" stroke-width="1.5"/><rect x="233.0" y="153.0" width="168" height="5" rx="3" fill="#fbf4e3" opacity="0.7"/><text x="241.0" y="171.0" font-size="11" fill="#2f7fb0" font-weight="600">净水</text><rect x="348.0" y="159.0" width="47" height="20" rx="10" fill="#4a3b28" opacity="0.82"/><text x="371.5" y="173.0" text-anchor="middle" font-size="12.5" fill="#f3ecdc" font-weight="600">约2瓶</text><path d="M 317.0 193.0 C 330.0 208.0 326.0 221.0 317.0 221.0 C 308.0 221.0 304.0 208.0 317.0 193.0 Z" fill="#2f7fb0" opacity="0.9"/><ellipse cx="314.0" cy="210.0" rx="3" ry="5" fill="#fff" opacity="0.4"/><text x="317.0" y="242.0" text-anchor="middle" font-size="13.5" fill="#4a3b28" font-weight="600">密封矿泉水</text><text x="242.0" y="271.0" font-size="10.5" fill="#5a9e5a">可用</text><rect x="242.0" y="276.0" width="150" height="8" rx="4" fill="#000" opacity="0.10"/><rect x="242.0" y="276.0" width="75.0" height="8" rx="4" fill="#c79a3a"/><text x="392.0" y="271.0" text-anchor="end" font-size="10.5" fill="#6f5e44">2/4</text><rect x="420.0" y="150.0" width="174" height="150" rx="12" fill="#bfa97f"/><rect x="420.0" y="150.0" width="174" height="147" rx="12" fill="#e7dcc2" stroke="#2f7fb0" stroke-opacity="0.5" stroke-width="1.5"/><rect x="423.0" y="153.0" width="168" height="5" rx="3" fill="#fbf4e3" opacity="0.7"/><text x="431.0" y="171.0" font-size="11" fill="#2f7fb0" font-weight="600">净水</text><rect x="520.0" y="159.0" width="65" height="20" rx="10" fill="#4a3b28" opacity="0.82"/><text x="552.5" y="173.0" text-anchor="middle" font-size="12.5" fill="#f3ecdc" font-weight="600">&lt;0.5瓶</text><path d="M 507.0 193.0 C 520.0 208.0 516.0 221.0 507.0 221.0 C 498.0 221.0 494.0 208.0 507.0 193.0 Z" fill="#2f7fb0" opacity="0.9"/><ellipse cx="504.0" cy="210.0" rx="3" ry="5" fill="#fff" opacity="0.4"/><text x="507.0" y="242.0" text-anchor="middle" font-size="13.5" fill="#4a3b28" font-weight="600">接到的雨水</text><text x="432.0" y="271.0" font-size="10.5" fill="#5a9e5a">可用</text><rect x="432.0" y="276.0" width="150" height="8" rx="4" fill="#000" opacity="0.10"/><rect x="432.0" y="276.0" width="150" height="8" rx="4" fill="#5a9e5a" opacity="0.55"/><rect x="610.0" y="150.0" width="174" height="150" rx="12" fill="#bfa97f"/><rect x="610.0" y="150.0" width="174" height="147" rx="12" fill="#e7dcc2" stroke="#b5832f" stroke-opacity="0.5" stroke-width="1.5"/><rect x="613.0" y="153.0" width="168" height="5" rx="3" fill="#fbf4e3" opacity="0.7"/><text x="621.0" y="171.0" font-size="11" fill="#b5832f" font-weight="600">食物</text><rect x="737.0" y="159.0" width="38" height="20" rx="10" fill="#4a3b28" opacity="0.82"/><text x="756.0" y="173.0" text-anchor="middle" font-size="12.5" fill="#f3ecdc" font-weight="600">×1</text><circle cx="697.0" cy="208.0" r="14" fill="#b5832f" opacity="0.9"/><circle cx="693.0" cy="205.0" r="1.7" fill="#fff" opacity="0.55"/><circle cx="701.0" cy="207.0" r="1.7" fill="#fff" opacity="0.55"/><circle cx="697.0" cy="212.0" r="1.7" fill="#fff" opacity="0.55"/><circle cx="692.0" cy="211.0" r="1.7" fill="#fff" opacity="0.55"/><circle cx="702.0" cy="212.0" r="1.7" fill="#fff" opacity="0.55"/><text x="697.0" y="242.0" text-anchor="middle" font-size="13.5" fill="#4a3b28" font-weight="600">独立包装零食</text><text x="622.0" y="271.0" font-size="10.5" fill="#c79a3a">部分受潮</text><rect x="622.0" y="276.0" width="150" height="8" rx="4" fill="#000" opacity="0.10"/><rect x="622.0" y="276.0" width="150" height="8" rx="4" fill="#c79a3a" opacity="0.55"/><rect x="800.0" y="150.0" width="174" height="150" rx="12" fill="#bfa97f"/><rect x="800.0" y="150.0" width="174" height="147" rx="12" fill="#e7dcc2" stroke="#b5832f" stroke-opacity="0.5" stroke-width="1.5"/><rect x="803.0" y="153.0" width="168" height="5" rx="3" fill="#fbf4e3" opacity="0.7"/><text x="811.0" y="171.0" font-size="11" fill="#b5832f" font-weight="600">食物</text><rect x="891.0" y="159.0" width="74" height="20" rx="10" fill="#4a3b28" opacity="0.82"/><text x="928.0" y="173.0" text-anchor="middle" font-size="12.5" fill="#f3ecdc" font-weight="600">少量(略减)</text><circle cx="887.0" cy="208.0" r="14" fill="#b5832f" opacity="0.9"/><circle cx="883.0" cy="205.0" r="1.7" fill="#fff" opacity="0.55"/><circle cx="891.0" cy="207.0" r="1.7" fill="#fff" opacity="0.55"/><circle cx="887.0" cy="212.0" r="1.7" fill="#fff" opacity="0.55"/><circle cx="882.0" cy="211.0" r="1.7" fill="#fff" opacity="0.55"/><circle cx="892.0" cy="212.0" r="1.7" fill="#fff" opacity="0.55"/><text x="887.0" y="242.0" text-anchor="middle" font-size="13.5" fill="#4a3b28" font-weight="600">据点密封食物</text><text x="812.0" y="271.0" font-size="10.5" fill="#5a9e5a">可用</text><rect x="812.0" y="276.0" width="150" height="8" rx="4" fill="#000" opacity="0.10"/><rect x="812.0" y="276.0" width="150" height="8" rx="4" fill="#5a9e5a" opacity="0.55"/><rect x="40.0" y="316.0" width="174" height="150" rx="12" fill="#bfa97f"/><rect x="40.0" y="316.0" width="174" height="147" rx="12" fill="#e7dcc2" stroke="#3f8f86" stroke-opacity="0.5" stroke-width="1.5"/><rect x="43.0" y="319.0" width="168" height="5" rx="3" fill="#fbf4e3" opacity="0.7"/><text x="51.0" y="337.0" font-size="11" fill="#3f8f86" font-weight="600">装备</text><rect x="167.0" y="325.0" width="38" height="20" rx="10" fill="#4a3b28" opacity="0.82"/><text x="186.0" y="339.0" text-anchor="middle" font-size="12.5" fill="#f3ecdc" font-weight="600">×3</text><path d="M 115.0 362.0 L 123.0 362.0 L 127.0 367.0 L 131.0 362.0 L 139.0 362.0 L 139.0 387.0 L 115.0 387.0 Z" fill="#3f8f86" opacity="0.9"/><rect x="125.0" y="368.0" width="4" height="19" fill="#fff" opacity="0.45"/><text x="127.0" y="408.0" text-anchor="middle" font-size="13.5" fill="#4a3b28" font-weight="600">救生衣</text><text x="52.0" y="437.0" font-size="10.5" fill="#5a9e5a">在用</text><rect x="52.0" y="442.0" width="150" height="8" rx="4" fill="#000" opacity="0.10"/><rect x="52.0" y="442.0" width="150" height="8" rx="4" fill="#5a9e5a" opacity="0.55"/><rect x="230.0" y="316.0" width="174" height="150" rx="12" fill="#bfa97f"/><rect x="230.0" y="316.0" width="174" height="147" rx="12" fill="#e7dcc2" stroke="#8a5bb0" stroke-opacity="0.5" stroke-width="1.5"/><rect x="233.0" y="319.0" width="168" height="5" rx="3" fill="#fbf4e3" opacity="0.7"/><text x="241.0" y="337.0" font-size="11" fill="#8a5bb0" font-weight="600">疑点</text><rect x="357.0" y="325.0" width="38" height="20" rx="10" fill="#4a3b28" opacity="0.82"/><text x="376.0" y="339.0" text-anchor="middle" font-size="12.5" fill="#f3ecdc" font-weight="600">×1</text><path d="M 305.0 362.0 L 313.0 362.0 L 317.0 367.0 L 321.0 362.0 L 329.0 362.0 L 329.0 387.0 L 305.0 387.0 Z" fill="#8a5bb0" opacity="0.9"/><rect x="315.0" y="368.0" width="4" height="19" fill="#fff" opacity="0.45"/><text x="317.0" y="408.0" text-anchor="middle" font-size="13.5" fill="#4a3b28" font-weight="600">第4件空救生衣</text><text x="242.0" y="437.0" font-size="10.5" fill="#8a5bb0">存疑</text><rect x="242.0" y="442.0" width="150" height="8" rx="4" fill="#000" opacity="0.10"/><rect x="242.0" y="442.0" width="150" height="8" rx="4" fill="#8a5bb0" opacity="0.55"/><rect x="420.0" y="316.0" width="174" height="150" rx="12" fill="#bfa97f"/><rect x="420.0" y="316.0" width="174" height="147" rx="12" fill="#e7dcc2" stroke="#3f8f86" stroke-opacity="0.5" stroke-width="1.5"/><rect x="423.0" y="319.0" width="168" height="5" rx="3" fill="#fbf4e3" opacity="0.7"/><text x="431.0" y="337.0" font-size="11" fill="#3f8f86" font-weight="600">装备</text><rect x="547.0" y="325.0" width="38" height="20" rx="10" fill="#4a3b28" opacity="0.82"/><text x="566.0" y="339.0" text-anchor="middle" font-size="12.5" fill="#f3ecdc" font-weight="600">×1</text><rect x="494.0" y="367.0" width="26" height="20" rx="3" fill="#3f8f86" opacity="0.9"/><rect x="502.0" y="362.0" width="10" height="6" rx="2" fill="none" stroke="#3f8f86" stroke-width="2"/><line x1="494.0" y1="375.0" x2="520.0" y2="375.0" stroke="#fff" stroke-width="1.3" opacity="0.5"/><text x="507.0" y="408.0" text-anchor="middle" font-size="13.5" fill="#4a3b28" font-weight="600">硬壳行李箱</text><text x="432.0" y="437.0" font-size="10.5" fill="#c79a3a">已撬开</text><rect x="432.0" y="442.0" width="150" height="8" rx="4" fill="#000" opacity="0.10"/><rect x="432.0" y="442.0" width="150" height="8" rx="4" fill="#c79a3a" opacity="0.55"/><rect x="610.0" y="316.0" width="174" height="150" rx="12" fill="#bfa97f"/><rect x="610.0" y="316.0" width="174" height="147" rx="12" fill="#e7dcc2" stroke="#c4622b" stroke-opacity="0.5" stroke-width="1.5"/><rect x="613.0" y="319.0" width="168" height="5" rx="3" fill="#fbf4e3" opacity="0.7"/><text x="621.0" y="337.0" font-size="11" fill="#c4622b" font-weight="600">工具</text><rect x="737.0" y="325.0" width="38" height="20" rx="10" fill="#4a3b28" opacity="0.82"/><text x="756.0" y="339.0" text-anchor="middle" font-size="12.5" fill="#f3ecdc" font-weight="600">×1</text><path d="M 697.0 359.0 C 708.0 372.0 704.0 386.0 697.0 387.0 C 689.0 386.0 686.0 373.0 695.0 367.0 C 696.0 373.0 700.0 371.0 697.0 359.0 Z" fill="#c4622b" opacity="0.92"/><path d="M 697.0 371.0 C 702.0 377.0 699.0 385.0 697.0 385.0 C 694.0 385.0 692.0 378.0 697.0 371.0 Z" fill="#ffd9a0" opacity="0.85"/><text x="697.0" y="408.0" text-anchor="middle" font-size="13.5" fill="#4a3b28" font-weight="600">打火机(ZIPPO</text><text x="697.0" y="425.0" text-anchor="middle" font-size="13.5" fill="#4a3b28" font-weight="600">风格)</text><text x="622.0" y="437.0" font-size="10.5" fill="#5a9e5a">可用</text><rect x="622.0" y="442.0" width="150" height="8" rx="4" fill="#000" opacity="0.10"/><rect x="622.0" y="442.0" width="150" height="8" rx="4" fill="#5a9e5a" opacity="0.55"/><rect x="800.0" y="316.0" width="174" height="150" rx="12" fill="#bfa97f"/><rect x="800.0" y="316.0" width="174" height="147" rx="12" fill="#e7dcc2" stroke="#c4622b" stroke-opacity="0.5" stroke-width="1.5"/><rect x="803.0" y="319.0" width="168" height="5" rx="3" fill="#fbf4e3" opacity="0.7"/><text x="811.0" y="337.0" font-size="11" fill="#c4622b" font-weight="600">工具</text><rect x="927.0" y="325.0" width="38" height="20" rx="10" fill="#4a3b28" opacity="0.82"/><text x="946.0" y="339.0" text-anchor="middle" font-size="12.5" fill="#f3ecdc" font-weight="600">×1</text><path d="M 874.0 382.0 L 897.0 363.0 L 900.0 367.0 L 878.0 385.0 Z" fill="#c4622b" opacity="0.92"/><rect x="872.0" y="381.0" width="9" height="5" rx="2" transform="rotate(-40 876.0 383.0)" fill="#6f5e44"/><text x="887.0" y="408.0" text-anchor="middle" font-size="13.5" fill="#4a3b28" font-weight="600">多功能折叠刀</text><text x="812.0" y="437.0" font-size="10.5" fill="#8a8275">可用(在营)</text><rect x="812.0" y="442.0" width="150" height="8" rx="4" fill="#000" opacity="0.10"/><rect x="812.0" y="442.0" width="150" height="8" rx="4" fill="#8a8275" opacity="0.55"/><rect x="40.0" y="482.0" width="174" height="150" rx="12" fill="#bfa97f"/><rect x="40.0" y="482.0" width="174" height="147" rx="12" fill="#e7dcc2" stroke="#c4622b" stroke-opacity="0.5" stroke-width="1.5"/><rect x="43.0" y="485.0" width="168" height="5" rx="3" fill="#fbf4e3" opacity="0.7"/><text x="51.0" y="503.0" font-size="11" fill="#c4622b" font-weight="600">工具</text><rect x="167.0" y="491.0" width="38" height="20" rx="10" fill="#4a3b28" opacity="0.82"/><text x="186.0" y="505.0" text-anchor="middle" font-size="12.5" fill="#f3ecdc" font-weight="600">×1</text><path d="M 114.0 548.0 L 137.0 529.0 L 140.0 533.0 L 118.0 551.0 Z" fill="#c4622b" opacity="0.92"/><rect x="112.0" y="547.0" width="9" height="5" rx="2" transform="rotate(-40 116.0 549.0)" fill="#6f5e44"/><text x="127.0" y="574.0" text-anchor="middle" font-size="13.5" fill="#4a3b28" font-weight="600">硬塑料箱体侧板</text><text x="52.0" y="603.0" font-size="10.5" fill="#8a8275">可用(在营·复用)</text><rect x="52.0" y="608.0" width="150" height="8" rx="4" fill="#000" opacity="0.10"/><rect x="52.0" y="608.0" width="150" height="8" rx="4" fill="#8a8275" opacity="0.55"/><rect x="230.0" y="482.0" width="174" height="150" rx="12" fill="#bfa97f"/><rect x="230.0" y="482.0" width="174" height="147" rx="12" fill="#e7dcc2" stroke="#c4622b" stroke-opacity="0.5" stroke-width="1.5"/><rect x="233.0" y="485.0" width="168" height="5" rx="3" fill="#fbf4e3" opacity="0.7"/><text x="241.0" y="503.0" font-size="11" fill="#c4622b" font-weight="600">工具</text><rect x="357.0" y="491.0" width="38" height="20" rx="10" fill="#4a3b28" opacity="0.82"/><text x="376.0" y="505.0" text-anchor="middle" font-size="12.5" fill="#f3ecdc" font-weight="600">×1</text><rect x="305.0" y="527.0" width="24" height="26" rx="2.5" fill="#c4622b" opacity="0.9"/><rect x="305.0" y="527.0" width="6" height="26" rx="2.5" fill="#6f5e44" opacity="0.5"/><line x1="315.0" y1="534.0" x2="325.0" y2="534.0" stroke="#fff" stroke-width="1.4" opacity="0.6"/><line x1="315.0" y1="539.0" x2="325.0" y2="539.0" stroke="#fff" stroke-width="1.4" opacity="0.6"/><line x1="315.0" y1="544.0" x2="323.0" y2="544.0" stroke="#fff" stroke-width="1.4" opacity="0.6"/><text x="317.0" y="574.0" text-anchor="middle" font-size="13.5" fill="#4a3b28" font-weight="600">防水笔记本</text><text x="242.0" y="603.0" font-size="10.5" fill="#5a9e5a">可用</text><rect x="242.0" y="608.0" width="150" height="8" rx="4" fill="#000" opacity="0.10"/><rect x="242.0" y="608.0" width="150" height="8" rx="4" fill="#5a9e5a" opacity="0.55"/><rect x="420.0" y="482.0" width="174" height="150" rx="12" fill="#bfa97f"/><rect x="420.0" y="482.0" width="174" height="147" rx="12" fill="#e7dcc2" stroke="#3f8f86" stroke-opacity="0.5" stroke-width="1.5"/><rect x="423.0" y="485.0" width="168" height="5" rx="3" fill="#fbf4e3" opacity="0.7"/><text x="431.0" y="503.0" font-size="11" fill="#3f8f86" font-weight="600">装备</text><rect x="547.0" y="491.0" width="38" height="20" rx="10" fill="#4a3b28" opacity="0.82"/><text x="566.0" y="505.0" text-anchor="middle" font-size="12.5" fill="#f3ecdc" font-weight="600">×2</text><path d="M 495.0 528.0 L 503.0 528.0 L 507.0 533.0 L 511.0 528.0 L 519.0 528.0 L 519.0 553.0 L 495.0 553.0 Z" fill="#3f8f86" opacity="0.9"/><rect x="505.0" y="534.0" width="4" height="19" fill="#fff" opacity="0.45"/><text x="507.0" y="574.0" text-anchor="middle" font-size="13.5" fill="#4a3b28" font-weight="600">座椅坐垫</text><text x="432.0" y="603.0" font-size="10.5" fill="#5a9e5a">可用</text><rect x="432.0" y="608.0" width="150" height="8" rx="4" fill="#000" opacity="0.10"/><rect x="432.0" y="608.0" width="150" height="8" rx="4" fill="#5a9e5a" opacity="0.55"/><rect x="610.0" y="482.0" width="174" height="150" rx="12" fill="#bfa97f"/><rect x="610.0" y="482.0" width="174" height="147" rx="12" fill="#e7dcc2" stroke="#3f8f86" stroke-opacity="0.5" stroke-width="1.5"/><rect x="613.0" y="485.0" width="168" height="5" rx="3" fill="#fbf4e3" opacity="0.7"/><text x="621.0" y="503.0" font-size="11" fill="#3f8f86" font-weight="600">装备</text><rect x="728.0" y="491.0" width="47" height="20" rx="10" fill="#4a3b28" opacity="0.82"/><text x="751.5" y="505.0" text-anchor="middle" font-size="12.5" fill="#f3ecdc" font-weight="600">1大片</text><path d="M 685.0 528.0 L 693.0 528.0 L 697.0 533.0 L 701.0 528.0 L 709.0 528.0 L 709.0 553.0 L 685.0 553.0 Z" fill="#3f8f86" opacity="0.9"/><rect x="695.0" y="534.0" width="4" height="19" fill="#fff" opacity="0.45"/><text x="697.0" y="574.0" text-anchor="middle" font-size="13.5" fill="#4a3b28" font-weight="600">塑料/帆布残片</text><text x="622.0" y="603.0" font-size="10.5" fill="#c79a3a">已部分消耗</text><rect x="622.0" y="608.0" width="150" height="8" rx="4" fill="#000" opacity="0.10"/><rect x="622.0" y="608.0" width="150" height="8" rx="4" fill="#c79a3a" opacity="0.55"/><rect x="800.0" y="482.0" width="174" height="150" rx="12" fill="#bfa97f"/><rect x="800.0" y="482.0" width="174" height="147" rx="12" fill="#e7dcc2" stroke="#8a5bb0" stroke-opacity="0.5" stroke-width="1.5"/><rect x="803.0" y="485.0" width="168" height="5" rx="3" fill="#fbf4e3" opacity="0.7"/><text x="811.0" y="503.0" font-size="11" fill="#8a5bb0" font-weight="600">疑点</text><rect x="927.0" y="491.0" width="38" height="20" rx="10" fill="#4a3b28" opacity="0.82"/><text x="946.0" y="505.0" text-anchor="middle" font-size="12.5" fill="#f3ecdc" font-weight="600">×1</text><path d="M 873.0 547.0 L 873.0 541.0 Q 873.0 533.0 882.0 533.0 L 889.0 537.0 Q 902.0 539.0 902.0 547.0 Z" fill="#8a5bb0" opacity="0.9"/><line x1="873.0" y1="547.0" x2="902.0" y2="547.0" stroke="#6f5e44" stroke-width="2"/><text x="887.0" y="574.0" text-anchor="middle" font-size="13.5" fill="#4a3b28" font-weight="600">陌生男式球鞋(右脚</text><text x="887.0" y="591.0" text-anchor="middle" font-size="13.5" fill="#4a3b28" font-weight="600">)</text><text x="812.0" y="603.0" font-size="10.5" fill="#8a5bb0">存疑</text><rect x="812.0" y="608.0" width="150" height="8" rx="4" fill="#000" opacity="0.10"/><rect x="812.0" y="608.0" width="150" height="8" rx="4" fill="#8a5bb0" opacity="0.55"/><rect x="40.0" y="648.0" width="174" height="150" rx="12" fill="#bfa97f"/><rect x="40.0" y="648.0" width="174" height="147" rx="12" fill="#e7dcc2" stroke="#c4622b" stroke-opacity="0.5" stroke-width="1.5"/><rect x="43.0" y="651.0" width="168" height="5" rx="3" fill="#fbf4e3" opacity="0.7"/><text x="51.0" y="669.0" font-size="11" fill="#c4622b" font-weight="600">工具</text><rect x="167.0" y="657.0" width="38" height="20" rx="10" fill="#4a3b28" opacity="0.82"/><text x="186.0" y="671.0" text-anchor="middle" font-size="12.5" fill="#f3ecdc" font-weight="600">×1</text><path d="M 127.0 691.0 C 140.0 706.0 136.0 719.0 127.0 719.0 C 118.0 719.0 114.0 706.0 127.0 691.0 Z" fill="#c4622b" opacity="0.9"/><ellipse cx="124.0" cy="708.0" rx="3" ry="5" fill="#fff" opacity="0.4"/><text x="127.0" y="740.0" text-anchor="middle" font-size="13.5" fill="#4a3b28" font-weight="600">铝槽(煮水容器)</text><text x="52.0" y="769.0" font-size="10.5" fill="#5a9e5a">在用</text><rect x="52.0" y="774.0" width="150" height="8" rx="4" fill="#000" opacity="0.10"/><rect x="52.0" y="774.0" width="150" height="8" rx="4" fill="#5a9e5a" opacity="0.55"/><rect x="230.0" y="648.0" width="174" height="150" rx="12" fill="#bfa97f"/><rect x="230.0" y="648.0" width="174" height="147" rx="12" fill="#e7dcc2" stroke="#8a8275" stroke-opacity="0.5" stroke-width="1.5"/><rect x="233.0" y="651.0" width="168" height="5" rx="3" fill="#fbf4e3" opacity="0.7"/><text x="241.0" y="669.0" font-size="11" fill="#8a8275" font-weight="600">杂项</text><rect x="366.0" y="657.0" width="29" height="20" rx="10" fill="#4a3b28" opacity="0.82"/><text x="380.5" y="671.0" text-anchor="middle" font-size="12.5" fill="#f3ecdc" font-weight="600">多</text><rect x="308.0" y="697.0" width="7" height="7" rx="1.5" fill="#8a8275" opacity="0.85"/><rect x="319.0" y="697.0" width="7" height="7" rx="1.5" fill="#8a8275" opacity="0.85"/><rect x="308.0" y="708.0" width="7" height="7" rx="1.5" fill="#8a8275" opacity="0.85"/><rect x="319.0" y="708.0" width="7" height="7" rx="1.5" fill="#8a8275" opacity="0.85"/><text x="317.0" y="740.0" text-anchor="middle" font-size="13.5" fill="#4a3b28" font-weight="600">杂项</text><text x="242.0" y="769.0" font-size="10.5" fill="#5a9e5a">可用</text><rect x="242.0" y="774.0" width="150" height="8" rx="4" fill="#000" opacity="0.10"/><rect x="242.0" y="774.0" width="150" height="8" rx="4" fill="#5a9e5a" opacity="0.55"/><rect x="420.0" y="648.0" width="174" height="150" rx="12" fill="#bfa97f"/><rect x="420.0" y="648.0" width="174" height="147" rx="12" fill="#e7dcc2" stroke="#8a8275" stroke-opacity="0.5" stroke-width="1.5"/><rect x="423.0" y="651.0" width="168" height="5" rx="3" fill="#fbf4e3" opacity="0.7"/><text x="431.0" y="669.0" font-size="11" fill="#8a8275" font-weight="600">医疗</text><rect x="529.0" y="657.0" width="56" height="20" rx="10" fill="#4a3b28" opacity="0.82"/><text x="557.0" y="671.0" text-anchor="middle" font-size="12.5" fill="#f3ecdc" font-weight="600">约小半瓶</text><rect x="498.0" y="697.0" width="7" height="7" rx="1.5" fill="#8a8275" opacity="0.85"/><rect x="509.0" y="697.0" width="7" height="7" rx="1.5" fill="#8a8275" opacity="0.85"/><rect x="498.0" y="708.0" width="7" height="7" rx="1.5" fill="#8a8275" opacity="0.85"/><rect x="509.0" y="708.0" width="7" height="7" rx="1.5" fill="#8a8275" opacity="0.85"/><text x="507.0" y="740.0" text-anchor="middle" font-size="13.5" fill="#4a3b28" font-weight="600">消毒液</text><text x="432.0" y="769.0" font-size="10.5" fill="#5a9e5a">在用</text><rect x="432.0" y="774.0" width="150" height="8" rx="4" fill="#000" opacity="0.10"/><rect x="432.0" y="774.0" width="150" height="8" rx="4" fill="#5a9e5a" opacity="0.55"/><rect x="610.0" y="648.0" width="174" height="150" rx="12" fill="#bfa97f"/><rect x="610.0" y="648.0" width="174" height="147" rx="12" fill="#e7dcc2" stroke="#8a8275" stroke-opacity="0.5" stroke-width="1.5"/><rect x="613.0" y="651.0" width="168" height="5" rx="3" fill="#fbf4e3" opacity="0.7"/><text x="621.0" y="669.0" font-size="11" fill="#8a8275" font-weight="600">医疗</text><rect x="746.0" y="657.0" width="29" height="20" rx="10" fill="#4a3b28" opacity="0.82"/><text x="760.5" y="671.0" text-anchor="middle" font-size="12.5" fill="#f3ecdc" font-weight="600">多</text><rect x="688.0" y="697.0" width="7" height="7" rx="1.5" fill="#8a8275" opacity="0.85"/><rect x="699.0" y="697.0" width="7" height="7" rx="1.5" fill="#8a8275" opacity="0.85"/><rect x="688.0" y="708.0" width="7" height="7" rx="1.5" fill="#8a8275" opacity="0.85"/><rect x="699.0" y="708.0" width="7" height="7" rx="1.5" fill="#8a8275" opacity="0.85"/><text x="697.0" y="740.0" text-anchor="middle" font-size="13.5" fill="#4a3b28" font-weight="600">敷料(纱布/绷带/</text><text x="697.0" y="757.0" text-anchor="middle" font-size="13.5" fill="#4a3b28" font-weight="600">胶带)</text><text x="622.0" y="769.0" font-size="10.5" fill="#5a9e5a">可用</text><rect x="622.0" y="774.0" width="150" height="8" rx="4" fill="#000" opacity="0.10"/><rect x="622.0" y="774.0" width="150" height="8" rx="4" fill="#5a9e5a" opacity="0.55"/><rect x="800.0" y="648.0" width="174" height="150" rx="12" fill="#bfa97f"/><rect x="800.0" y="648.0" width="174" height="147" rx="12" fill="#e7dcc2" stroke="#8a8275" stroke-opacity="0.5" stroke-width="1.5"/><rect x="803.0" y="651.0" width="168" height="5" rx="3" fill="#fbf4e3" opacity="0.7"/><text x="811.0" y="669.0" font-size="11" fill="#8a8275" font-weight="600">医疗</text><rect x="891.0" y="657.0" width="74" height="20" rx="10" fill="#4a3b28" opacity="0.82"/><text x="928.0" y="671.0" text-anchor="middle" font-size="12.5" fill="#f3ecdc" font-weight="600">一板(拆过)</text><rect x="878.0" y="697.0" width="7" height="7" rx="1.5" fill="#8a8275" opacity="0.85"/><rect x="889.0" y="697.0" width="7" height="7" rx="1.5" fill="#8a8275" opacity="0.85"/><rect x="878.0" y="708.0" width="7" height="7" rx="1.5" fill="#8a8275" opacity="0.85"/><rect x="889.0" y="708.0" width="7" height="7" rx="1.5" fill="#8a8275" opacity="0.85"/><text x="887.0" y="740.0" text-anchor="middle" font-size="13.5" fill="#4a3b28" font-weight="600">不明药片</text><text x="812.0" y="769.0" font-size="10.5" fill="#8a8275">在营·继续不赌·存疑</text><rect x="812.0" y="774.0" width="150" height="8" rx="4" fill="#000" opacity="0.10"/><rect x="812.0" y="774.0" width="150" height="8" rx="4" fill="#8a8275" opacity="0.55"/><rect x="40.0" y="814.0" width="174" height="150" rx="12" fill="#bfa97f"/><rect x="40.0" y="814.0" width="174" height="147" rx="12" fill="#e7dcc2" stroke="#8a8275" stroke-opacity="0.5" stroke-width="1.5"/><rect x="43.0" y="817.0" width="168" height="5" rx="3" fill="#fbf4e3" opacity="0.7"/><text x="51.0" y="835.0" font-size="11" fill="#8a8275" font-weight="600">医疗</text><rect x="131.0" y="823.0" width="74" height="20" rx="10" fill="#4a3b28" opacity="0.82"/><text x="168.0" y="837.0" text-anchor="middle" font-size="12.5" fill="#f3ecdc" font-weight="600">几粒(未动)</text><rect x="118.0" y="863.0" width="7" height="7" rx="1.5" fill="#8a8275" opacity="0.85"/><rect x="129.0" y="863.0" width="7" height="7" rx="1.5" fill="#8a8275" opacity="0.85"/><rect x="118.0" y="874.0" width="7" height="7" rx="1.5" fill="#8a8275" opacity="0.85"/><rect x="129.0" y="874.0" width="7" height="7" rx="1.5" fill="#8a8275" opacity="0.85"/><text x="127.0" y="906.0" text-anchor="middle" font-size="13.5" fill="#4a3b28" font-weight="600">止痛药</text><text x="52.0" y="935.0" font-size="10.5" fill="#8a8275">在营·暂不用</text><rect x="52.0" y="940.0" width="150" height="8" rx="4" fill="#000" opacity="0.10"/><rect x="52.0" y="940.0" width="150" height="8" rx="4" fill="#8a8275" opacity="0.55"/><rect x="230.0" y="814.0" width="174" height="150" rx="12" fill="#bfa97f"/><rect x="230.0" y="814.0" width="174" height="147" rx="12" fill="#e7dcc2" stroke="#c4622b" stroke-opacity="0.5" stroke-width="1.5"/><rect x="233.0" y="817.0" width="168" height="5" rx="3" fill="#fbf4e3" opacity="0.7"/><text x="241.0" y="835.0" font-size="11" fill="#c4622b" font-weight="600">工具</text><rect x="357.0" y="823.0" width="38" height="20" rx="10" fill="#4a3b28" opacity="0.82"/><text x="376.0" y="837.0" text-anchor="middle" font-size="12.5" fill="#f3ecdc" font-weight="600">×1</text><path d="M 317.0 857.0 C 330.0 872.0 326.0 885.0 317.0 885.0 C 308.0 885.0 304.0 872.0 317.0 857.0 Z" fill="#c4622b" opacity="0.9"/><ellipse cx="314.0" cy="874.0" rx="3" ry="5" fill="#fff" opacity="0.4"/><text x="317.0" y="906.0" text-anchor="middle" font-size="13.5" fill="#4a3b28" font-weight="600">防水手电</text><text x="242.0" y="935.0" font-size="10.5" fill="#8a8275">在用·省电</text><rect x="242.0" y="940.0" width="150" height="8" rx="4" fill="#000" opacity="0.10"/><rect x="242.0" y="940.0" width="150" height="8" rx="4" fill="#8a8275" opacity="0.55"/><rect x="420.0" y="814.0" width="174" height="150" rx="12" fill="#bfa97f"/><rect x="420.0" y="814.0" width="174" height="147" rx="12" fill="#e7dcc2" stroke="#c4622b" stroke-opacity="0.5" stroke-width="1.5"/><rect x="423.0" y="817.0" width="168" height="5" rx="3" fill="#fbf4e3" opacity="0.7"/><text x="431.0" y="835.0" font-size="11" fill="#c4622b" font-weight="600">工具</text><rect x="547.0" y="823.0" width="38" height="20" rx="10" fill="#4a3b28" opacity="0.82"/><text x="566.0" y="837.0" text-anchor="middle" font-size="12.5" fill="#f3ecdc" font-weight="600">×1</text><path d="M 494.0 880.0 L 517.0 861.0 L 520.0 865.0 L 498.0 883.0 Z" fill="#c4622b" opacity="0.92"/><rect x="492.0" y="879.0" width="9" height="5" rx="2" transform="rotate(-40 496.0 881.0)" fill="#6f5e44"/><text x="507.0" y="906.0" text-anchor="middle" font-size="13.5" fill="#4a3b28" font-weight="600">金属杯</text><text x="432.0" y="935.0" font-size="10.5" fill="#5a9e5a">在用</text><rect x="432.0" y="940.0" width="150" height="8" rx="4" fill="#000" opacity="0.10"/><rect x="432.0" y="940.0" width="150" height="8" rx="4" fill="#5a9e5a" opacity="0.55"/><rect x="610.0" y="814.0" width="174" height="150" rx="12" fill="#bfa97f"/><rect x="610.0" y="814.0" width="174" height="147" rx="12" fill="#e7dcc2" stroke="#8a8275" stroke-opacity="0.5" stroke-width="1.5"/><rect x="613.0" y="817.0" width="168" height="5" rx="3" fill="#fbf4e3" opacity="0.7"/><text x="621.0" y="835.0" font-size="11" fill="#8a8275" font-weight="600">线索</text><rect x="737.0" y="823.0" width="38" height="20" rx="10" fill="#4a3b28" opacity="0.82"/><text x="756.0" y="837.0" text-anchor="middle" font-size="12.5" fill="#f3ecdc" font-weight="600">×1</text><rect x="688.0" y="863.0" width="7" height="7" rx="1.5" fill="#8a8275" opacity="0.85"/><rect x="699.0" y="863.0" width="7" height="7" rx="1.5" fill="#8a8275" opacity="0.85"/><rect x="688.0" y="874.0" width="7" height="7" rx="1.5" fill="#8a8275" opacity="0.85"/><rect x="699.0" y="874.0" width="7" height="7" rx="1.5" fill="#8a8275" opacity="0.85"/><text x="697.0" y="906.0" text-anchor="middle" font-size="13.5" fill="#4a3b28" font-weight="600">第四人测绘记录本</text><text x="622.0" y="935.0" font-size="10.5" fill="#8a8275">已初读</text><rect x="622.0" y="940.0" width="150" height="8" rx="4" fill="#000" opacity="0.10"/><rect x="622.0" y="940.0" width="150" height="8" rx="4" fill="#8a8275" opacity="0.55"/><rect x="800.0" y="814.0" width="174" height="150" rx="12" fill="#000" opacity="0.05" stroke="#9c855f" stroke-dasharray="4 4" stroke-opacity="0.5" stroke-width="1.4"/><text x="887.0" y="894.0" text-anchor="middle" font-size="12" fill="#9c855f" opacity="0.55">空格</text><rect x="40" y="994.0" width="523.0" height="156.0" rx="12" fill="#e7dcc2" stroke="#6f5638" stroke-opacity="0.5" stroke-width="1.5"/><text x="56" y="1020.0" font-size="15" font-weight="700" fill="#c0533f">🔥 营火</text><text x="56" y="1040.0" font-size="12" fill="#6f5e44">火稳·料剩中等·已拣一抱垫明夜·19-21 ZYY 续旺当石头后标</text><rect x="56.0" y="1062.0" width="157.7" height="16" rx="4" fill="#5a9e5a" opacity="0.28"/><text x="134.8" y="1074.0" text-anchor="middle" font-size="11" fill="#6f5e44">充足</text><rect x="219.7" y="1062.0" width="157.7" height="16" rx="4" fill="#c79a3a" opacity="0.85"/><text x="298.5" y="1074.0" text-anchor="middle" font-size="11" fill="#fff">偏紧</text><rect x="383.4" y="1062.0" width="157.7" height="16" rx="4" fill="#c0533f" opacity="0.28"/><text x="462.2" y="1074.0" text-anchor="middle" font-size="11" fill="#6f5e44">告急</text><text x="298.5" y="1059.0" text-anchor="middle" font-size="13" fill="#c0533f">▾</text><text x="56" y="1108.0" font-size="11" fill="#6f5e44">白天稳；守夜靠拣料维持，信标火/整夜煮水会透支、需次日补 打火机点燃(帆布+棕榈干叶</text><text x="56" y="1123.0" font-size="11" fill="#6f5e44">)；铝槽为唯一煮水容器；逐次拣料/煮水起伏见关键节点与归档面</text><rect x="581.0" y="994.0" width="393.0" height="156.0" rx="12" fill="#e7dcc2" stroke="#c0533f" stroke-opacity="0.45" stroke-width="1.5"/><text x="597.0" y="1020.0" font-size="15" font-weight="700" fill="#c0533f">没有 · 短缺</text><rect x="597.0" y="1029.0" width="14" height="14" rx="3" fill="none" stroke="#c0533f" stroke-width="1.6" stroke-dasharray="2 2"/><line x1="599.0" y1="1031.0" x2="609.0" y2="1041.0" stroke="#c0533f" stroke-width="1.2" opacity="0.7"/><text x="619.0" y="1042.0" font-size="12" fill="#6f5e44">通讯设备(手机进水报废)</text><rect x="597.0" y="1051.0" width="14" height="14" rx="3" fill="none" stroke="#c0533f" stroke-width="1.6" stroke-dasharray="2 2"/><line x1="599.0" y1="1053.0" x2="609.0" y2="1063.0" stroke="#c0533f" stroke-width="1.2" opacity="0.7"/><text x="619.0" y="1064.0" font-size="12" fill="#6f5e44">可辨认的抗生素(不明药片字迹磨损·Q6悬置)</text></svg>