<svg xmlns="http://www.w3.org/2000/svg" viewBox="0 0 1100 1800.0" font-family="'PingFang SC','Hiragino Sans GB','Microsoft YaHei',sans-serif"><defs><radialGradient id="corkg" cx="40%" cy="34%" r="85%"><stop offset="0%" stop-color="#c9a86a"/><stop offset="100%" stop-color="#b8965a"/></radialGradient><filter id="corktx"><feTurbulence type="fractalNoise" baseFrequency="0.5" numOctaves="3" seed="7" result="n"/><feColorMatrix in="n" type="matrix" values="0 0 0 0 0.45 0 0 0 0 0.33 0 0 0 0 0.16 0 0 0 0.10 0"/></filter></defs><rect x="0" y="0" width="1100" height="1800.0" fill="url(#corkg)"/><rect x="0" y="0" width="1100" height="1800.0" filter="url(#corktx)"/><rect x="8" y="8" width="1084" height="1784.0" rx="12" fill="none" stroke="#6f5638" stroke-width="9"/><rect x="15" y="15" width="1070" height="1770.0" rx="8" fill="none" stroke="#5a4528" stroke-width="1.5" opacity="0.6"/><text x="40" y="60" font-size="27" font-weight="800" fill="#3f3324" letter-spacing="2">🔍 第四人疑云</text><rect x="282" y="41" width="78" height="24" rx="12" fill="#b4302a" opacity="0.9"/><text x="321" y="58" text-anchor="middle" font-size="12.5" fill="#fff">进行中</text><text x="1060" y="40" text-anchor="end" font-size="11.5" fill="#6f5e44">更新于 第6天 · 2027-04-17 · 00:00（第5天日结）</text><text x="40" y="80" font-size="12.5" fill="#6f5e44">总判：第四人疑云现分两条线(大概率两拨人·非定论·除非超现实硬证据否则不并)：①飞机乘客线——第四件空救生衣/球鞋/拖痕+海漂浮尸(第5天13:35上岸·辨明同机遇难男乘客·便装</text><text x="40" y="97" font-size="12.5" fill="#6f5e44">没穿救生衣对上救生衣·但面目泡毁无证件·是谁/是否ZYY记忆空白者无法坐实·第5天14:05–15:55石头独力沙葬于北端礁石根上方一步·棕榈叶包+沙覆+四块压石+削白枝立标·身</text><text x="40" y="114" font-size="12.5" fill="#6f5e44">份未解部分沉入沙下)；②先于坠机在岛的测绘者线——东南据点+记录本(N-03/夜间勿入虫停先撤/作业止于04-10→去向成冷问号)+林内刻痕+北边夜异常(第四夜衰减到天·11:3…</text><text x="40" y="168.0" font-size="13" font-weight="700" fill="#7c6038" letter-spacing="2">物证 · 线索（11）</text><text x="742.0" y="158.0" font-size="13" font-weight="700" fill="#7c6038" letter-spacing="2">待解 · 疑问（8）</text><path d="M 298.0 256.5 Q 520.0 251.2 742.0 206.0" fill="none" stroke="#a83228" stroke-width="1.3" opacity="0.42" stroke-linecap="round"/><circle cx="298.0" cy="256.5" r="2.4" fill="#a83228" opacity="0.6"/><circle cx="742.0" cy="206.0" r="2.4" fill="#a83228" opacity="0.6"/><path d="M 298.0 256.5 Q 520.0 593.8 742.0 891.0" fill="none" stroke="#a83228" stroke-width="1.3" opacity="0.42" stroke-linecap="round"/><circle cx="298.0" cy="256.5" r="2.4" fill="#a83228" opacity="0.6"/><circle cx="742.0" cy="891.0" r="2.4" fill="#a83228" opacity="0.6"/><path d="M 576.0 242.5 Q 659.0 244.2 742.0 206.0" fill="none" stroke="#a83228" stroke-width="1.3" opacity="0.42" stroke-linecap="round"/><circle cx="576.0" cy="242.5" r="2.4" fill="#a83228" opacity="0.6"/><circle cx="742.0" cy="206.0" r="2.4" fill="#a83228" opacity="0.6"/><path d="M 298.0 404.5 Q 520.0 325.2 742.0 206.0" fill="none" stroke="#a83228" stroke-width="1.3" opacity="0.42" stroke-linecap="round"/><circle cx="298.0" cy="404.5" r="2.4" fill="#a83228" opacity="0.6"/><circle cx="742.0" cy="206.0" r="2.4" fill="#a83228" opacity="0.6"/><path d="M 576.0 407.5 Q 659.0 369.2 742.0 291.0" fill="none" stroke="#a83228" stroke-width="1.3" opacity="0.42" stroke-linecap="round"/><circle cx="576.0" cy="407.5" r="2.4" fill="#a83228" opacity="0.6"/><circle cx="742.0" cy="291.0" r="2.4" fill="#a83228" opacity="0.6"/><path d="M 576.0 407.5 Q 659.0 461.2 742.0 475.0" fill="none" stroke="#a83228" stroke-width="1.3" opacity="0.42" stroke-linecap="round"/><circle cx="576.0" cy="407.5" r="2.4" fill="#a83228" opacity="0.6"/><circle cx="742.0" cy="475.0" r="2.4" fill="#a83228" opacity="0.6"/><path d="M 298.0 544.5 Q 520.0 483.8 742.0 383.0" fill="none" stroke="#a83228" stroke-width="1.3" opacity="0.42" stroke-linecap="round"/><circle cx="298.0" cy="544.5" r="2.4" fill="#a83228" opacity="0.6"/><circle cx="742.0" cy="383.0" r="2.4" fill="#a83228" opacity="0.6"/><path d="M 576.0 551.5 Q 659.0 487.2 742.0 383.0" fill="none" stroke="#a83228" stroke-width="1.3" opacity="0.42" stroke-linecap="round"/><circle cx="576.0" cy="551.5" r="2.4" fill="#a83228" opacity="0.6"/><circle cx="742.0" cy="383.0" r="2.4" fill="#a83228" opacity="0.6"/><path d="M 298.0 692.5 Q 520.0 557.8 742.0 383.0" fill="none" stroke="#a83228" stroke-width="1.3" opacity="0.42" stroke-linecap="round"/><circle cx="298.0" cy="692.5" r="2.4" fill="#a83228" opacity="0.6"/><circle cx="742.0" cy="383.0" r="2.4" fill="#a83228" opacity="0.6"/><path d="M 298.0 692.5 Q 520.0 653.8 742.0 575.0" fill="none" stroke="#a83228" stroke-width="1.3" opacity="0.42" stroke-linecap="round"/><circle cx="298.0" cy="692.5" r="2.4" fill="#a83228" opacity="0.6"/><circle cx="742.0" cy="575.0" r="2.4" fill="#a83228" opacity="0.6"/><path d="M 576.0 695.5 Q 659.0 605.2 742.0 475.0" fill="none" stroke="#a83228" stroke-width="1.3" opacity="0.42" stroke-linecap="round"/><circle cx="576.0" cy="695.5" r="2.4" fill="#a83228" opacity="0.6"/><circle cx="742.0" cy="475.0" r="2.4" fill="#a83228" opacity="0.6"/><path d="M 576.0 695.5 Q 659.0 655.2 742.0 575.0" fill="none" stroke="#a83228" stroke-width="1.3" opacity="0.42" stroke-linecap="round"/><circle cx="576.0" cy="695.5" r="2.4" fill="#a83228" opacity="0.6"/><circle cx="742.0" cy="575.0" r="2.4" fill="#a83228" opacity="0.6"/><path d="M 298.0 888.5 Q 520.0 751.8 742.0 575.0" fill="none" stroke="#a83228" stroke-width="1.3" opacity="0.42" stroke-linecap="round"/><circle cx="298.0" cy="888.5" r="2.4" fill="#a83228" opacity="0.6"/><circle cx="742.0" cy="575.0" r="2.4" fill="#a83228" opacity="0.6"/><path d="M 298.0 888.5 Q 520.0 859.8 742.0 791.0" fill="none" stroke="#a83228" stroke-width="1.3" opacity="0.42" stroke-linecap="round"/><circle cx="298.0" cy="888.5" r="2.4" fill="#a83228" opacity="0.6"/><circle cx="742.0" cy="791.0" r="2.4" fill="#a83228" opacity="0.6"/><path d="M 576.0 877.5 Q 659.0 561.8 742.0 206.0" fill="none" stroke="#a83228" stroke-width="1.3" opacity="0.42" stroke-linecap="round"/><circle cx="576.0" cy="877.5" r="2.4" fill="#a83228" opacity="0.6"/><circle cx="742.0" cy="206.0" r="2.4" fill="#a83228" opacity="0.6"/><path d="M 576.0 877.5 Q 659.0 904.2 742.0 891.0" fill="none" stroke="#a83228" stroke-width="1.3" opacity="0.42" stroke-linecap="round"/><circle cx="576.0" cy="877.5" r="2.4" fill="#a83228" opacity="0.6"/><circle cx="742.0" cy="891.0" r="2.4" fill="#a83228" opacity="0.6"/><g transform="rotate(0.6 901.0 206.0)"><rect x="746.0" y="181.0" width="318" height="60.0" fill="#000" opacity="0.14"/><rect x="742.0" y="176.0" width="318" height="60.0" fill="#f3e08c" stroke="#d9c45f" stroke-width="1"/><text x="756.0" y="202.0" font-size="14" font-weight="800" fill="#b4302a">Q1</text><text x="786.0" y="202.0" font-size="13" fill="#3f3324">拖痕断在沙边——第四人(乘客线)爬进林子</text><text x="786.0" y="218.0" font-size="13" fill="#3f3324">/被浪卷走/别的？</text></g><circle cx="759.5" cy="189.0" r="6.5" fill="#000" opacity="0.22"/><circle cx="758.0" cy="187.0" r="6.2" fill="#3f6fb0"/><circle cx="756.0" cy="185.0" r="2" fill="#fff" opacity="0.7"/><g transform="rotate(-0.5 901.0 291.0)"><rect x="746.0" y="259.0" width="318" height="74.0" fill="#000" opacity="0.14"/><rect x="742.0" y="254.0" width="318" height="74.0" fill="#f3e08c" stroke="#d9c45f" stroke-width="1"/><text x="756.0" y="280.0" font-size="14" font-weight="800" fill="#b4302a">Q2</text><text x="786.0" y="280.0" font-size="13" fill="#3f3324">笔记本草图是哪的海岸线？</text><rect x="756.0" y="304.0" width="74" height="17" rx="3" fill="#5a9e5a" transform="rotate(-4 793.0 312.0)"/><text x="793.0" y="316.0" text-anchor="middle" font-size="10.5" fill="#fff" font-weight="700" transform="rotate(-4 793.0 312.0)">部分解</text></g><circle cx="759.5" cy="267.0" r="6.5" fill="#000" opacity="0.22"/><circle cx="758.0" cy="265.0" r="6.2" fill="#3f6fb0"/><circle cx="756.0" cy="263.0" r="2" fill="#fff" opacity="0.7"/><g transform="rotate(1.8 901.0 383.0)"><rect x="746.0" y="351.0" width="318" height="74.0" fill="#000" opacity="0.14"/><rect x="742.0" y="346.0" width="318" height="74.0" fill="#f3e08c" stroke="#d9c45f" stroke-width="1"/><text x="756.0" y="372.0" font-size="14" font-weight="800" fill="#b4302a">Q3</text><text x="786.0" y="372.0" font-size="13" fill="#3f3324">树干刻痕先于坠机——之前有人在岛上？</text><rect x="756.0" y="396.0" width="74" height="17" rx="3" fill="#5a9e5a" transform="rotate(-4 793.0 404.0)"/><text x="793.0" y="408.0" text-anchor="middle" font-size="10.5" fill="#fff" font-weight="700" transform="rotate(-4 793.0 404.0)">部分解</text></g><circle cx="759.5" cy="359.0" r="6.5" fill="#000" opacity="0.22"/><circle cx="758.0" cy="357.0" r="6.2" fill="#3f6fb0"/><circle cx="756.0" cy="355.0" r="2" fill="#fff" opacity="0.7"/><g transform="rotate(0.5 901.0 475.0)"><rect x="746.0" y="443.0" width="318" height="74.0" fill="#000" opacity="0.14"/><rect x="742.0" y="438.0" width="318" height="74.0" fill="#f3e08c" stroke="#d9c45f" stroke-width="1"/><text x="756.0" y="464.0" font-size="14" font-weight="800" fill="#b4302a">Q4</text><text x="786.0" y="464.0" font-size="13" fill="#3f3324">行李箱主人身份？</text><rect x="756.0" y="488.0" width="74" height="17" rx="3" fill="#5a9e5a" transform="rotate(-4 793.0 496.0)"/><text x="793.0" y="500.0" text-anchor="middle" font-size="10.5" fill="#fff" font-weight="700" transform="rotate(-4 793.0 496.0)">部分解</text></g><circle cx="759.5" cy="451.0" r="6.5" fill="#000" opacity="0.22"/><circle cx="758.0" cy="449.0" r="6.2" fill="#3f6fb0"/><circle cx="756.0" cy="447.0" r="2" fill="#fff" opacity="0.7"/><g transform="rotate(-0.7 901.0 575.0)"><rect x="746.0" y="535.0" width="318" height="90.0" fill="#000" opacity="0.14"/><rect x="742.0" y="530.0" width="318" height="90.0" fill="#f3e08c" stroke="#d9c45f" stroke-width="1"/><text x="756.0" y="556.0" font-size="14" font-weight="800" fill="#b4302a">Q5</text><text x="786.0" y="556.0" font-size="13" fill="#3f3324">据点主人与沙滩'第四人'是同一人还是两拨</text><text x="786.0" y="572.0" font-size="13" fill="#3f3324">人？</text><rect x="756.0" y="596.0" width="74" height="17" rx="3" fill="#5a9e5a" transform="rotate(-4 793.0 604.0)"/><text x="793.0" y="608.0" text-anchor="middle" font-size="10.5" fill="#fff" font-weight="700" transform="rotate(-4 793.0 604.0)">部分解</text></g><circle cx="759.5" cy="543.0" r="6.5" fill="#000" opacity="0.22"/><circle cx="758.0" cy="541.0" r="6.2" fill="#3f6fb0"/><circle cx="756.0" cy="539.0" r="2" fill="#fff" opacity="0.7"/><g transform="rotate(0.9 901.0 683.0)"><rect x="746.0" y="643.0" width="318" height="90.0" fill="#000" opacity="0.14"/><rect x="742.0" y="638.0" width="318" height="90.0" fill="#f3e08c" stroke="#d9c45f" stroke-width="1"/><text x="756.0" y="664.0" font-size="14" font-weight="800" fill="#b4302a">Q6</text><text x="786.0" y="664.0" font-size="13" fill="#3f3324">据点不明药片是抗生素还是别的？敢用在老</text><text x="786.0" y="680.0" font-size="13" fill="#3f3324">发身上吗？</text><rect x="756.0" y="704.0" width="74" height="17" rx="3" fill="#5a9e5a" transform="rotate(-4 793.0 712.0)"/><text x="793.0" y="716.0" text-anchor="middle" font-size="10.5" fill="#fff" font-weight="700" transform="rotate(-4 793.0 712.0)">部分解</text></g><circle cx="759.5" cy="651.0" r="6.5" fill="#000" opacity="0.22"/><circle cx="758.0" cy="649.0" r="6.2" fill="#3f6fb0"/><circle cx="756.0" cy="647.0" r="2" fill="#fff" opacity="0.7"/><g transform="rotate(-1.8 901.0 791.0)"><rect x="746.0" y="751.0" width="318" height="90.0" fill="#000" opacity="0.14"/><rect x="742.0" y="746.0" width="318" height="90.0" fill="#f3e08c" stroke="#d9c45f" stroke-width="1"/><text x="756.0" y="772.0" font-size="14" font-weight="800" fill="#b4302a">Q7</text><text x="786.0" y="772.0" font-size="13" fill="#3f3324">N-03是什么？为何夜间勿入、虫停先撤？先</text><text x="786.0" y="788.0" font-size="13" fill="#3f3324">行者是否因此失踪/撤离？</text><rect x="756.0" y="812.0" width="74" height="17" rx="3" fill="#5a9e5a" transform="rotate(-4 793.0 820.0)"/><text x="793.0" y="824.0" text-anchor="middle" font-size="10.5" fill="#fff" font-weight="700" transform="rotate(-4 793.0 820.0)">部分解</text></g><circle cx="759.5" cy="759.0" r="6.5" fill="#000" opacity="0.22"/><circle cx="758.0" cy="757.0" r="6.2" fill="#3f6fb0"/><circle cx="756.0" cy="755.0" r="2" fill="#fff" opacity="0.7"/><g transform="rotate(-0.9 901.0 891.0)"><rect x="746.0" y="859.0" width="318" height="74.0" fill="#000" opacity="0.14"/><rect x="742.0" y="854.0" width="318" height="74.0" fill="#f3e08c" stroke="#d9c45f" stroke-width="1"/><text x="756.0" y="880.0" font-size="14" font-weight="800" fill="#b4302a">Q8</text><text x="786.0" y="880.0" font-size="13" fill="#3f3324">海漂浮尸是谁？</text><rect x="756.0" y="904.0" width="74" height="17" rx="3" fill="#5a9e5a" transform="rotate(-4 793.0 912.0)"/><text x="793.0" y="916.0" text-anchor="middle" font-size="10.5" fill="#fff" font-weight="700" transform="rotate(-4 793.0 912.0)">部分解</text></g><circle cx="759.5" cy="867.0" r="6.5" fill="#000" opacity="0.22"/><circle cx="758.0" cy="865.0" r="6.2" fill="#3f6fb0"/><circle cx="756.0" cy="863.0" r="2" fill="#fff" opacity="0.7"/><g transform="rotate(0.5 169.0 256.5)"><rect x="44.0" y="193.0" width="258" height="137.0" rx="4" fill="#000" opacity="0.16"/><rect x="40.0" y="188.0" width="258" height="137.0" rx="4" fill="#fbf6ea" stroke="#d8c6a4" stroke-width="1.2"/><rect x="40.0" y="188.0" width="6" height="137.0" rx="3" fill="#5a9e5a" opacity="0.85"/><circle cx="68.0" cy="214.0" r="13" fill="#5a9e5a"/><text x="68.0" y="219.0" text-anchor="middle" font-size="14" font-weight="700" fill="#fff">1</text><text x="90.0" y="212.0" font-size="14.5" font-weight="700" fill="#3f3324">第四件空救生衣</text><text x="56.0" y="246.0" font-size="11.5" fill="#6f5e44">📍 退潮线</text><text x="56.0" y="263.0" font-size="11" fill="#6f5e44">无主/已空/被浪推上岸；第5天浮尸上岸辨</text><text x="56.0" y="277.0" font-size="11" fill="#6f5e44">明很可能是他的(上岸男乘客便装没穿救生衣</text><text x="56.0" y="291.0" font-size="11" fill="#6f5e44">)→飞机乘客线</text><rect x="232.0" y="299.0" width="54" height="18" rx="9" fill="#5a9e5a" opacity="0.16"/><text x="259.0" y="312.0" text-anchor="middle" font-size="11" fill="#5a9e5a" font-weight="600">部分</text></g><circle cx="170.5" cy="199.0" r="6.5" fill="#000" opacity="0.22"/><circle cx="169.0" cy="197.0" r="6.2" fill="#c0533f"/><circle cx="167.0" cy="195.0" r="2" fill="#fff" opacity="0.7"/><g transform="rotate(0.9 447.0 242.5)"><rect x="322.0" y="193.0" width="258" height="109.0" rx="4" fill="#000" opacity="0.16"/><rect x="318.0" y="188.0" width="258" height="109.0" rx="4" fill="#fbf6ea" stroke="#d8c6a4" stroke-width="1.2"/><rect x="318.0" y="188.0" width="6" height="109.0" rx="3" fill="#b9772e" opacity="0.85"/><circle cx="346.0" cy="214.0" r="13" fill="#b9772e"/><text x="346.0" y="219.0" text-anchor="middle" font-size="14" font-weight="700" fill="#fff">2</text><text x="368.0" y="212.0" font-size="14.5" font-weight="700" fill="#3f3324">陌生男式球鞋(右脚)</text><text x="334.0" y="246.0" font-size="11.5" fill="#6f5e44">📍 退潮线</text><text x="334.0" y="263.0" font-size="11" fill="#6f5e44">单只/不属三人→飞机乘客线</text><rect x="510.0" y="271.0" width="54" height="18" rx="9" fill="#b9772e" opacity="0.16"/><text x="537.0" y="284.0" text-anchor="middle" font-size="11" fill="#b9772e" font-weight="600">待解</text></g><circle cx="448.5" cy="199.0" r="6.5" fill="#000" opacity="0.22"/><circle cx="447.0" cy="197.0" r="6.2" fill="#c0533f"/><circle cx="445.0" cy="195.0" r="2" fill="#fff" opacity="0.7"/><g transform="rotate(-0.2 169.0 404.5)"><rect x="44.0" y="348.0" width="258" height="123.0" rx="4" fill="#000" opacity="0.16"/><rect x="40.0" y="343.0" width="258" height="123.0" rx="4" fill="#fbf6ea" stroke="#d8c6a4" stroke-width="1.2"/><rect x="40.0" y="343.0" width="6" height="123.0" rx="3" fill="#b9772e" opacity="0.85"/><circle cx="68.0" cy="369.0" r="13" fill="#b9772e"/><text x="68.0" y="374.0" text-anchor="middle" font-size="14" font-weight="700" fill="#fff">3</text><text x="90.0" y="367.0" font-size="14.5" font-weight="700" fill="#3f3324">断在沙边的拖痕</text><text x="56.0" y="401.0" font-size="11.5" fill="#6f5e44">📍 水线</text><text x="56.0" y="418.0" font-size="11" fill="#6f5e44">止于沙滩内侧约3m/未进林线/未续→飞机乘</text><text x="56.0" y="432.0" font-size="11" fill="#6f5e44">客线</text><rect x="232.0" y="440.0" width="54" height="18" rx="9" fill="#b9772e" opacity="0.16"/><text x="259.0" y="453.0" text-anchor="middle" font-size="11" fill="#b9772e" font-weight="600">待解</text></g><circle cx="170.5" cy="354.0" r="6.5" fill="#000" opacity="0.22"/><circle cx="169.0" cy="352.0" r="6.2" fill="#c0533f"/><circle cx="167.0" cy="350.0" r="2" fill="#fff" opacity="0.7"/><g transform="rotate(-1.2 447.0 407.5)"><rect x="322.0" y="348.0" width="258" height="129.0" rx="4" fill="#000" opacity="0.16"/><rect x="318.0" y="343.0" width="258" height="129.0" rx="4" fill="#fbf6ea" stroke="#d8c6a4" stroke-width="1.2"/><rect x="318.0" y="343.0" width="6" height="129.0" rx="3" fill="#5a9e5a" opacity="0.85"/><circle cx="346.0" cy="369.0" r="13" fill="#5a9e5a"/><text x="346.0" y="374.0" text-anchor="middle" font-size="14" font-weight="700" fill="#fff">4</text><text x="368.0" y="367.0" font-size="14.5" font-weight="700" fill="#3f3324">硬壳行李箱(男式·工具·草图</text><text x="368.0" y="385.0" font-size="14.5" font-weight="700" fill="#3f3324">本)</text><text x="334.0" y="407.0" font-size="11.5" fill="#6f5e44">📍 残骸·退潮线</text><text x="334.0" y="424.0" font-size="11" fill="#6f5e44">主人男性疑野外工作者；草图=本岛地形导航</text><text x="334.0" y="438.0" font-size="11" fill="#6f5e44">图</text><rect x="510.0" y="446.0" width="54" height="18" rx="9" fill="#5a9e5a" opacity="0.16"/><text x="537.0" y="459.0" text-anchor="middle" font-size="11" fill="#5a9e5a" font-weight="600">部分</text></g><circle cx="448.5" cy="354.0" r="6.5" fill="#000" opacity="0.22"/><circle cx="447.0" cy="352.0" r="6.2" fill="#c0533f"/><circle cx="445.0" cy="350.0" r="2" fill="#fff" opacity="0.7"/><g transform="rotate(0.6 169.0 544.5)"><rect x="44.0" y="495.0" width="258" height="109.0" rx="4" fill="#000" opacity="0.16"/><rect x="40.0" y="490.0" width="258" height="109.0" rx="4" fill="#fbf6ea" stroke="#d8c6a4" stroke-width="1.2"/><rect x="40.0" y="490.0" width="6" height="109.0" rx="3" fill="#b9772e" opacity="0.85"/><circle cx="68.0" cy="516.0" r="13" fill="#b9772e"/><text x="68.0" y="521.0" text-anchor="middle" font-size="14" font-weight="700" fill="#fff">5</text><text x="90.0" y="514.0" font-size="14.5" font-weight="700" fill="#3f3324">陌生布片(林内)</text><text x="56.0" y="548.0" font-size="11.5" fill="#6f5e44">📍 林内约40m</text><text x="56.0" y="565.0" font-size="11" fill="#6f5e44">深色功能织物/被划破/无血迹</text><rect x="232.0" y="573.0" width="54" height="18" rx="9" fill="#b9772e" opacity="0.16"/><text x="259.0" y="586.0" text-anchor="middle" font-size="11" fill="#b9772e" font-weight="600">待解</text></g><circle cx="170.5" cy="501.0" r="6.5" fill="#000" opacity="0.22"/><circle cx="169.0" cy="499.0" r="6.2" fill="#c0533f"/><circle cx="167.0" cy="497.0" r="2" fill="#fff" opacity="0.7"/><g transform="rotate(-1.7 447.0 551.5)"><rect x="322.0" y="495.0" width="258" height="123.0" rx="4" fill="#000" opacity="0.16"/><rect x="318.0" y="490.0" width="258" height="123.0" rx="4" fill="#fbf6ea" stroke="#d8c6a4" stroke-width="1.2"/><rect x="318.0" y="490.0" width="6" height="123.0" rx="3" fill="#b9772e" opacity="0.85"/><circle cx="346.0" cy="516.0" r="13" fill="#b9772e"/><text x="346.0" y="521.0" text-anchor="middle" font-size="14" font-weight="700" fill="#fff">6</text><text x="368.0" y="514.0" font-size="14.5" font-weight="700" fill="#3f3324">树干刀刻标路记号</text><text x="334.0" y="548.0" font-size="11.5" fill="#6f5e44">📍 林内约30–40m</text><text x="334.0" y="565.0" font-size="11" fill="#6f5e44">老发判丛林标路/非近期/先于三人→测绘者</text><text x="334.0" y="579.0" font-size="11" fill="#6f5e44">线</text><rect x="510.0" y="587.0" width="54" height="18" rx="9" fill="#b9772e" opacity="0.16"/><text x="537.0" y="600.0" text-anchor="middle" font-size="11" fill="#b9772e" font-weight="600">待解</text></g><circle cx="448.5" cy="501.0" r="6.5" fill="#000" opacity="0.22"/><circle cx="447.0" cy="499.0" r="6.2" fill="#c0533f"/><circle cx="445.0" cy="497.0" r="2" fill="#fff" opacity="0.7"/><g transform="rotate(0.2 169.0 692.5)"><rect x="44.0" y="636.0" width="258" height="123.0" rx="4" fill="#000" opacity="0.16"/><rect x="40.0" y="631.0" width="258" height="123.0" rx="4" fill="#fbf6ea" stroke="#d8c6a4" stroke-width="1.2"/><rect x="40.0" y="631.0" width="6" height="123.0" rx="3" fill="#5a9e5a" opacity="0.85"/><circle cx="68.0" cy="657.0" r="13" fill="#5a9e5a"/><text x="68.0" y="662.0" text-anchor="middle" font-size="14" font-weight="700" fill="#fff">7</text><text x="90.0" y="655.0" font-size="14.5" font-weight="700" fill="#3f3324">东南据点(经营有时日)</text><text x="56.0" y="689.0" font-size="11.5" fill="#6f5e44">📍 东南〔74,63〕</text><text x="56.0" y="706.0" font-size="11" fill="#6f5e44">岩壁凹处+枝条编架+绷布/住过一阵/主人不</text><text x="56.0" y="720.0" font-size="11" fill="#6f5e44">在→岛上先于三人有人扎营·测绘者线</text><rect x="232.0" y="728.0" width="54" height="18" rx="9" fill="#5a9e5a" opacity="0.16"/><text x="259.0" y="741.0" text-anchor="middle" font-size="11" fill="#5a9e5a" font-weight="600">部分</text></g><circle cx="170.5" cy="642.0" r="6.5" fill="#000" opacity="0.22"/><circle cx="169.0" cy="640.0" r="6.2" fill="#c0533f"/><circle cx="167.0" cy="638.0" r="2" fill="#fff" opacity="0.7"/><g transform="rotate(-1.3 447.0 695.5)"><rect x="322.0" y="636.0" width="258" height="129.0" rx="4" fill="#000" opacity="0.16"/><rect x="318.0" y="631.0" width="258" height="129.0" rx="4" fill="#fbf6ea" stroke="#d8c6a4" stroke-width="1.2"/><rect x="318.0" y="631.0" width="6" height="129.0" rx="3" fill="#5a9e5a" opacity="0.85"/><circle cx="346.0" cy="657.0" r="13" fill="#5a9e5a"/><text x="346.0" y="662.0" text-anchor="middle" font-size="14" font-weight="700" fill="#fff">8</text><text x="368.0" y="655.0" font-size="14.5" font-weight="700" fill="#3f3324">测绘装备(记录本/标杆/硬壳</text><text x="368.0" y="673.0" font-size="14.5" font-weight="700" fill="#3f3324">盒)</text><text x="334.0" y="695.0" font-size="11.5" fill="#6f5e44">📍 东南据点</text><text x="334.0" y="712.0" font-size="11" fill="#6f5e44">草图同款多本+标杆+模糊标识硬壳盒=野外</text><text x="334.0" y="726.0" font-size="11" fill="#6f5e44">作业/测绘者·石头抽走最厚一本</text><rect x="510.0" y="734.0" width="54" height="18" rx="9" fill="#5a9e5a" opacity="0.16"/><text x="537.0" y="747.0" text-anchor="middle" font-size="11" fill="#5a9e5a" font-weight="600">部分</text></g><circle cx="448.5" cy="642.0" r="6.5" fill="#000" opacity="0.22"/><circle cx="447.0" cy="640.0" r="6.2" fill="#c0533f"/><circle cx="445.0" cy="638.0" r="2" fill="#fff" opacity="0.7"/><g transform="rotate(1.2 169.0 888.5)"><rect x="44.0" y="783.0" width="258" height="221.0" rx="4" fill="#000" opacity="0.16"/><rect x="40.0" y="778.0" width="258" height="221.0" rx="4" fill="#fbf6ea" stroke="#d8c6a4" stroke-width="1.2"/><rect x="40.0" y="778.0" width="6" height="221.0" rx="3" fill="#5a9e5a" opacity="0.85"/><circle cx="68.0" cy="804.0" r="13" fill="#5a9e5a"/><text x="68.0" y="809.0" text-anchor="middle" font-size="14" font-weight="700" fill="#fff">9</text><text x="90.0" y="802.0" font-size="14.5" font-weight="700" fill="#3f3324">测绘记录本·N-03</text><text x="56.0" y="836.0" font-size="11.5" fill="#6f5e44">📍 记录本/北边林线</text><text x="56.0" y="853.0" font-size="11" fill="#6f5e44">04-07~04-10先行作业日期·N-03靠近营地</text><text x="56.0" y="867.0" font-size="11" fill="#6f5e44">北偏左·页边'夜间勿入/虫停先撤/白天复核</text><text x="56.0" y="881.0" font-size="11" fill="#6f5e44">'·路线反复描划+记录止于04-10→先行者去</text><text x="56.0" y="895.0" font-size="11" fill="#6f5e44">向冷问号；11:30白天复核白天北边全无异</text><text x="56.0" y="909.0" font-size="11" fill="#6f5e44">常→只夜里成立更难解；第5天16-19石头主</text><text x="56.0" y="923.0" font-size="11" fill="#6f5e44">动林缘夜观·18:50第五夜首异常最早最宽·</text><text x="56.0" y="937.0" font-size="11" fill="#6f5e44">头一回眼睛接住林根一道黑挪两三步·依规没</text><text x="56.0" y="951.0" font-size="11" fill="#6f5e44">开灯先撤(decline反转·仍未解)；药名对</text><text x="56.0" y="965.0" font-size="11" fill="#6f5e44">不上 → dev-北边夜异常强力发展</text><rect x="232.0" y="973.0" width="54" height="18" rx="9" fill="#5a9e5a" opacity="0.16"/><text x="259.0" y="986.0" text-anchor="middle" font-size="11" fill="#5a9e5a" font-weight="600">部分</text></g><circle cx="170.5" cy="789.0" r="6.5" fill="#000" opacity="0.22"/><circle cx="169.0" cy="787.0" r="6.2" fill="#c0533f"/><circle cx="167.0" cy="785.0" r="2" fill="#fff" opacity="0.7"/><g transform="rotate(0.8 447.0 877.5)"><rect x="322.0" y="783.0" width="258" height="199.0" rx="4" fill="#000" opacity="0.16"/><rect x="318.0" y="778.0" width="258" height="199.0" rx="4" fill="#fbf6ea" stroke="#d8c6a4" stroke-width="1.2"/><rect x="318.0" y="778.0" width="6" height="199.0" rx="3" fill="#5a9e5a" opacity="0.85"/><circle cx="346.0" cy="804.0" r="13" fill="#5a9e5a"/><text x="346.0" y="809.0" text-anchor="middle" font-size="14" font-weight="700" fill="#fff">10</text><text x="368.0" y="802.0" font-size="14.5" font-weight="700" fill="#3f3324">海漂浮尸(已沙葬·北端礁石根</text><text x="368.0" y="820.0" font-size="14.5" font-weight="700" fill="#3f3324">上方一步)</text><text x="334.0" y="842.0" font-size="11.5" fill="#6f5e44">📍 北端礁石根上方一步·第三块黑礁石…</text><text x="334.0" y="859.0" font-size="11" fill="#6f5e44">第4天14:40初现卷回流两天未靠岸→第5天1</text><text x="334.0" y="873.0" font-size="11" fill="#6f5e44">3:35午后涨潮上岸·辨明成年男性同机遇难</text><text x="334.0" y="887.0" font-size="11" fill="#6f5e44">乘客(便装·没穿救生衣→对上线索1)·但面目</text><text x="334.0" y="901.0" font-size="11" fill="#6f5e44">泡毁+无证件→是谁/是否ZYY记忆空白者/与</text><text x="334.0" y="915.0" font-size="11" fill="#6f5e44">据点主人关系全无法坐实→第5天14:05–15</text><text x="334.0" y="929.0" font-size="11" fill="#6f5e44">:55石头独力沙葬·身份未解部分沉入沙下 →</text><text x="334.0" y="943.0" font-size="11" fill="#6f5e44"> big-海漂浮尸上岸/evt-沙葬同机的人</text><rect x="510.0" y="951.0" width="54" height="18" rx="9" fill="#5a9e5a" opacity="0.16"/><text x="537.0" y="964.0" text-anchor="middle" font-size="11" fill="#5a9e5a" font-weight="600">部分</text></g><circle cx="448.5" cy="789.0" r="6.5" fill="#000" opacity="0.22"/><circle cx="447.0" cy="787.0" r="6.2" fill="#c0533f"/><circle cx="445.0" cy="785.0" r="2" fill="#fff" opacity="0.7"/><g transform="rotate(-1.8 169.0 1099.5)"><rect x="44.0" y="1022.0" width="258" height="165.0" rx="4" fill="#000" opacity="0.16"/><rect x="40.0" y="1017.0" width="258" height="165.0" rx="4" fill="#fbf6ea" stroke="#d8c6a4" stroke-width="1.2"/><rect x="40.0" y="1017.0" width="6" height="165.0" rx="3" fill="#b9772e" opacity="0.85"/><circle cx="68.0" cy="1043.0" r="13" fill="#b9772e"/><text x="68.0" y="1048.0" text-anchor="middle" font-size="14" font-weight="700" fill="#fff">11</text><text x="90.0" y="1041.0" font-size="14.5" font-weight="700" fill="#3f3324">老发烧中漏的旧事</text><text x="56.0" y="1075.0" font-size="11.5" fill="#6f5e44">📍 营地·发烧半睡</text><text x="56.0" y="1092.0" font-size="11" fill="#6f5e44">第4天23:30+第5天02:10+05:25三度漏含</text><text x="56.0" y="1106.0" font-size="11" fill="#6f5e44">混音节(名/地名+'没接到/没接着'+'我没</text><text x="56.0" y="1120.0" font-size="11" fill="#6f5e44">…没看见')·判烧出来胡话+老发私捂之事·</text><text x="56.0" y="1134.0" font-size="11" fill="#6f5e44">清醒一字不提·指针更冷·与诸谜无确证关联</text><text x="56.0" y="1148.0" font-size="11" fill="#6f5e44">·待观察(悬两线之外) → day-第5天</text><rect x="232.0" y="1156.0" width="54" height="18" rx="9" fill="#b9772e" opacity="0.16"/><text x="259.0" y="1169.0" text-anchor="middle" font-size="11" fill="#b9772e" font-weight="600">待解</text></g><circle cx="170.5" cy="1028.0" r="6.5" fill="#000" opacity="0.22"/><circle cx="169.0" cy="1026.0" r="6.2" fill="#c0533f"/><circle cx="167.0" cy="1024.0" r="2" fill="#fff" opacity="0.7"/><text x="40" y="1220.0" font-size="13" font-weight="700" fill="#3f3324" letter-spacing="2">侦查进展 ▸（15 条）</text><g transform="rotate(-1.2 204.7 1266.0)"><rect x="43.0" y="1238.0" width="329.3" height="64.0" fill="#000" opacity="0.13"/><rect x="40.0" y="1234.0" width="329.3" height="64.0" fill="#fbf3df" stroke="#d8c6a4"/><text x="54.0" y="1256.0" font-size="12" font-weight="700" fill="#b4302a">第1天18:20</text><text x="54.0" y="1276.0" font-size="11" fill="#6f5e44">笔记本=有意识绘制本岛地形的导航图(等高线)</text></g><circle cx="206.2" cy="1242.0" r="6.5" fill="#000" opacity="0.22"/><circle cx="204.7" cy="1240.0" r="6.2" fill="#4f9d54"/><circle cx="202.7" cy="1238.0" r="2" fill="#fff" opacity="0.7"/><g transform="rotate(-0.4 550.0 1266.0)"><rect x="388.3" y="1238.0" width="329.3" height="64.0" fill="#000" opacity="0.13"/><rect x="385.3" y="1234.0" width="329.3" height="64.0" fill="#fbf3df" stroke="#d8c6a4"/><text x="399.3" y="1256.0" font-size="12" font-weight="700" fill="#b4302a">第1天19:25</text><text x="399.3" y="1276.0" font-size="11" fill="#6f5e44">ZYY追忆名单有'多出来的一张票'·脸/名/性别全空白·疑被抹过</text></g><circle cx="551.5" cy="1242.0" r="6.5" fill="#000" opacity="0.22"/><circle cx="550.0" cy="1240.0" r="6.2" fill="#4f9d54"/><circle cx="548.0" cy="1238.0" r="2" fill="#fff" opacity="0.7"/><g transform="rotate(0.4 895.3 1266.0)"><rect x="733.7" y="1238.0" width="329.3" height="64.0" fill="#000" opacity="0.13"/><rect x="730.7" y="1234.0" width="329.3" height="64.0" fill="#fbf3df" stroke="#d8c6a4"/><text x="744.7" y="1256.0" font-size="12" font-weight="700" fill="#b4302a">第1–2天</text><text x="744.7" y="1276.0" font-size="11" fill="#6f5e44">北边同向异常累积六次·形态渐轻间隔缩短·夜间均未排除</text></g><circle cx="896.8" cy="1242.0" r="6.5" fill="#000" opacity="0.22"/><circle cx="895.3" cy="1240.0" r="6.2" fill="#4f9d54"/><circle cx="893.3" cy="1238.0" r="2" fill="#fff" opacity="0.7"/><g transform="rotate(-1.8 204.7 1353.0)"><rect x="43.0" y="1318.0" width="329.3" height="78.0" fill="#000" opacity="0.13"/><rect x="40.0" y="1314.0" width="329.3" height="78.0" fill="#fbf3df" stroke="#d8c6a4"/><text x="54.0" y="1336.0" font-size="12" font-weight="700" fill="#b4302a">第2天05:05–06:05</text><text x="54.0" y="1356.0" font-size="11" fill="#6f5e44">老发'不是动物'共识→06:05白昼目击暗色有体积活物贴地往西·</text><text x="54.0" y="1370.0" font-size="11" fill="#6f5e44">非声误判·体积大于禽类</text></g><circle cx="206.2" cy="1322.0" r="6.5" fill="#000" opacity="0.22"/><circle cx="204.7" cy="1320.0" r="6.2" fill="#4f9d54"/><circle cx="202.7" cy="1318.0" r="2" fill="#fff" opacity="0.7"/><g transform="rotate(-0.2 550.0 1353.0)"><rect x="388.3" y="1318.0" width="329.3" height="78.0" fill="#000" opacity="0.13"/><rect x="385.3" y="1314.0" width="329.3" height="78.0" fill="#fbf3df" stroke="#d8c6a4"/><text x="399.3" y="1336.0" font-size="12" font-weight="700" fill="#b4302a">第2天</text><text x="399.3" y="1356.0" font-size="11" fill="#6f5e44">折返框架(草图西北=已知地/东南=未达目的地+旧踩踏停标+影子</text><text x="399.3" y="1370.0" font-size="11" fill="#6f5e44">往西)·推测非确认</text></g><circle cx="551.5" cy="1322.0" r="6.5" fill="#000" opacity="0.22"/><circle cx="550.0" cy="1320.0" r="6.2" fill="#4f9d54"/><circle cx="548.0" cy="1318.0" r="2" fill="#fff" opacity="0.7"/><g transform="rotate(-1.2 895.3 1346.0)"><rect x="733.7" y="1318.0" width="329.3" height="64.0" fill="#000" opacity="0.13"/><rect x="730.7" y="1314.0" width="329.3" height="64.0" fill="#fbf3df" stroke="#d8c6a4"/><text x="744.7" y="1336.0" font-size="12" font-weight="700" fill="#b4302a">第2–3天</text><text x="744.7" y="1356.0" font-size="11" fill="#6f5e44">第二夜异常衰减(更迟更轻更少·黎明未现形)·行为模式疑调整</text></g><circle cx="896.8" cy="1322.0" r="6.5" fill="#000" opacity="0.22"/><circle cx="895.3" cy="1320.0" r="6.2" fill="#4f9d54"/><circle cx="893.3" cy="1318.0" r="2" fill="#fff" opacity="0.7"/><g transform="rotate(-1.5 204.7 1447.0)"><rect x="43.0" y="1412.0" width="329.3" height="78.0" fill="#000" opacity="0.13"/><rect x="40.0" y="1408.0" width="329.3" height="78.0" fill="#fbf3df" stroke="#d8c6a4"/><text x="54.0" y="1430.0" font-size="12" font-weight="700" fill="#b4302a">第3天</text><text x="54.0" y="1450.0" font-size="11" fill="#6f5e44">东南补给动机→明日预案→石头提前独闯·摸黑抵疑似据点(干预de</text><text x="54.0" y="1464.0" font-size="11" fill="#6f5e44">v-石头独闯东南)</text></g><circle cx="206.2" cy="1416.0" r="6.5" fill="#000" opacity="0.22"/><circle cx="204.7" cy="1414.0" r="6.2" fill="#4f9d54"/><circle cx="202.7" cy="1412.0" r="2" fill="#fff" opacity="0.7"/><g transform="rotate(-0.3 550.0 1447.0)"><rect x="388.3" y="1412.0" width="329.3" height="78.0" fill="#000" opacity="0.13"/><rect x="385.3" y="1408.0" width="329.3" height="78.0" fill="#fbf3df" stroke="#d8c6a4"/><text x="399.3" y="1430.0" font-size="12" font-weight="700" fill="#b4302a">第4天</text><text x="399.3" y="1450.0" font-size="11" fill="#6f5e44">东南据点搜查(big)：第一份补给+测绘装备→岛上先于三人有作</text><text x="399.3" y="1464.0" font-size="11" fill="#6f5e44">业者·'岛只有我们三个'被打破·主人去向未明</text></g><circle cx="551.5" cy="1416.0" r="6.5" fill="#000" opacity="0.22"/><circle cx="550.0" cy="1414.0" r="6.2" fill="#4f9d54"/><circle cx="548.0" cy="1412.0" r="2" fill="#fff" opacity="0.7"/><g transform="rotate(-0.3 895.3 1447.0)"><rect x="733.7" y="1412.0" width="329.3" height="78.0" fill="#000" opacity="0.13"/><rect x="730.7" y="1408.0" width="329.3" height="78.0" fill="#fbf3df" stroke="#d8c6a4"/><text x="744.7" y="1430.0" font-size="12" font-weight="700" fill="#b4302a">第4天</text><text x="744.7" y="1450.0" font-size="11" fill="#6f5e44">记录本初读+夜读：N-03+'夜间勿入/虫停先撤/白天复核'+先行</text><text x="744.7" y="1464.0" font-size="11" fill="#6f5e44">作业止于04-10→先行者去向冷问号·药名对不上</text></g><circle cx="896.8" cy="1416.0" r="6.5" fill="#000" opacity="0.22"/><circle cx="895.3" cy="1414.0" r="6.2" fill="#4f9d54"/><circle cx="893.3" cy="1412.0" r="2" fill="#fff" opacity="0.7"/><g transform="rotate(-0.7 204.7 1562.0)"><rect x="43.0" y="1506.0" width="329.3" height="120.0" fill="#000" opacity="0.13"/><rect x="40.0" y="1502.0" width="329.3" height="120.0" fill="#fbf3df" stroke="#d8c6a4"/><text x="54.0" y="1524.0" font-size="12" font-weight="700" fill="#b4302a">第4–5天·16-19</text><text x="54.0" y="1544.0" font-size="11" fill="#6f5e44">北边夜异常四夜衰减→第四夜后整段安静('虫停先撤'四夜首次没</text><text x="54.0" y="1558.0" font-size="11" fill="#6f5e44">兑现)·11:30白天复核零证据→只夜里成立；第5天16-19强力发</text><text x="54.0" y="1572.0" font-size="11" fill="#6f5e44">展(dev):石头主动林缘夜观·老发把'虫停先撤'交成可照做规矩</text><text x="54.0" y="1586.0" font-size="11" fill="#6f5e44">·18:50第五夜首异常最早最宽·头一回眼睛接住林根一道黑挪两</text><text x="54.0" y="1600.0" font-size="11" fill="#6f5e44">三步·依规没开灯先撤→decline反转·仍未解</text></g><circle cx="206.2" cy="1510.0" r="6.5" fill="#000" opacity="0.22"/><circle cx="204.7" cy="1508.0" r="6.2" fill="#4f9d54"/><circle cx="202.7" cy="1506.0" r="2" fill="#fff" opacity="0.7"/><g transform="rotate(-1.2 550.0 1541.0)"><rect x="388.3" y="1506.0" width="329.3" height="78.0" fill="#000" opacity="0.13"/><rect x="385.3" y="1502.0" width="329.3" height="78.0" fill="#fbf3df" stroke="#d8c6a4"/><text x="399.3" y="1524.0" font-size="12" font-weight="700" fill="#b4302a">第5天13:35</text><text x="399.3" y="1544.0" font-size="11" fill="#6f5e44">海漂浮尸上岸辨明同机遇难乘客(便装·没穿救生衣→对上第四件</text><text x="399.3" y="1558.0" font-size="11" fill="#6f5e44">空救生衣)·身份无法坐实·ZYY空白对着具体的人更冷</text></g><circle cx="551.5" cy="1510.0" r="6.5" fill="#000" opacity="0.22"/><circle cx="550.0" cy="1508.0" r="6.2" fill="#4f9d54"/><circle cx="548.0" cy="1506.0" r="2" fill="#fff" opacity="0.7"/><g transform="rotate(-0.4 895.3 1548.0)"><rect x="733.7" y="1506.0" width="329.3" height="92.0" fill="#000" opacity="0.13"/><rect x="730.7" y="1502.0" width="329.3" height="92.0" fill="#fbf3df" stroke="#d8c6a4"/><text x="744.7" y="1524.0" font-size="12" font-weight="700" fill="#b4302a">第5天14-16</text><text x="744.7" y="1544.0" font-size="11" fill="#6f5e44">石头独力沙葬同机的人(北端礁石根上方一步·棕榈叶包+沙覆+四</text><text x="744.7" y="1558.0" font-size="11" fill="#6f5e44">块压石+削白枝立标·新地标第三块黑礁石上方一步)·身份未解部</text><text x="744.7" y="1572.0" font-size="11" fill="#6f5e44">分沉入沙下</text></g><circle cx="896.8" cy="1510.0" r="6.5" fill="#000" opacity="0.22"/><circle cx="895.3" cy="1508.0" r="6.2" fill="#4f9d54"/><circle cx="893.3" cy="1506.0" r="2" fill="#fff" opacity="0.7"/><g transform="rotate(-1.1 204.7 1684.0)"><rect x="43.0" y="1642.0" width="329.3" height="92.0" fill="#000" opacity="0.13"/><rect x="40.0" y="1638.0" width="329.3" height="92.0" fill="#fbf3df" stroke="#d8c6a4"/><text x="54.0" y="1660.0" font-size="12" font-weight="700" fill="#b4302a">第5天</text><text x="54.0" y="1680.0" font-size="11" fill="#6f5e44">两线分叉确立(大概率两拨人)：飞机乘客线(救生衣/浮尸已沙葬</text><text x="54.0" y="1694.0" font-size="11" fill="#6f5e44">)vs先于坠机的测绘者线(据点/记录本/N-03)·除非超现实硬证</text><text x="54.0" y="1708.0" font-size="11" fill="#6f5e44">据否则不并；老发烧中漏旧事指针更冷(悬两线之外)</text></g><circle cx="206.2" cy="1646.0" r="6.5" fill="#000" opacity="0.22"/><circle cx="204.7" cy="1644.0" r="6.2" fill="#4f9d54"/><circle cx="202.7" cy="1642.0" r="2" fill="#fff" opacity="0.7"/><g transform="rotate(1.4 550.0 1698.0)"><rect x="388.3" y="1642.0" width="329.3" height="120.0" fill="#000" opacity="0.13"/><rect x="385.3" y="1638.0" width="329.3" height="120.0" fill="#fbf3df" stroke="#d8c6a4"/><text x="399.3" y="1660.0" font-size="12" font-weight="700" fill="#b4302a">第5天19-21·N-03</text><text x="399.3" y="1680.0" font-size="11" fill="#6f5e44">深第五夜起余震性质：洞被虫鸣慢慢填回但边缘'不齐'持续约40</text><text x="399.3" y="1694.0" font-size="11" fill="#6f5e44">分钟(听感暗度·非清楚断片)·非升级；石头被身体叫停撤回(套</text><text x="399.3" y="1708.0" font-size="11" fill="#6f5e44">缰绳第二回·没多走半步)·20:15 唯一一次手电短扫沙地树根无</text><text x="399.3" y="1722.0" font-size="11" fill="#6f5e44">异即关·20:40 散去虫鸣均匀铺回(画面留在石头脑子里) → de</text><text x="399.3" y="1736.0" font-size="11" fill="#6f5e44">v-北边夜异常强力发展</text></g><circle cx="551.5" cy="1646.0" r="6.5" fill="#000" opacity="0.22"/><circle cx="550.0" cy="1644.0" r="6.2" fill="#4f9d54"/><circle cx="548.0" cy="1642.0" r="2" fill="#fff" opacity="0.7"/><g transform="rotate(-1.2 895.3 1691.0)"><rect x="733.7" y="1642.0" width="329.3" height="106.0" fill="#000" opacity="0.13"/><rect x="730.7" y="1638.0" width="329.3" height="106.0" fill="#fbf3df" stroke="#d8c6a4"/><text x="744.7" y="1660.0" font-size="12" font-weight="700" fill="#b4302a">第5天21-24·N-03</text><text x="744.7" y="1680.0" font-size="11" fill="#6f5e44">深第五夜收尾：22:50第十二次极轻断片(约两秒·比04:35更轻)</text><text x="744.7" y="1694.0" font-size="11" fill="#6f5e44">·能用眼睛接住的人(石头)睡死、ZYY回不开身、老发只听个尾巴</text><text x="744.7" y="1708.0" font-size="11" fill="#6f5e44">——今夜来了一下没人接住·dev提权下'来了却没人接'·无新揭</text><text x="744.7" y="1722.0" font-size="11" fill="#6f5e44">示 → dev-北边夜异常强力发展</text></g><circle cx="896.8" cy="1646.0" r="6.5" fill="#000" opacity="0.22"/><circle cx="895.3" cy="1644.0" r="6.2" fill="#4f9d54"/><circle cx="893.3" cy="1642.0" r="2" fill="#fff" opacity="0.7"/></svg>